<svg xmlns="http://www.w3.org/2000/svg" height="511pt" version="1.1" viewBox="-8 0 511 511.99875" width="511pt">
<g id="surface1">
<path d="M 495.453125 216.375 C 495.390625 215.046875 495.230469 213.660156 494.976562 212.226562 C 494.835938 211.429688 494.660156 210.640625 494.46875 209.855469 C 494.425781 209.683594 494.382812 209.515625 494.339844 209.34375 C 493.917969 207.726562 493.390625 206.148438 492.761719 204.605469 C 492.722656 204.507812 492.6875 204.414062 492.648438 204.324219 C 490.085938 198.183594 485.914062 192.703125 480.457031 188.4375 L 399.402344 125.097656 L 347.234375 10.796875 C 345.191406 6.316406 341.519531 2.898438 336.90625 1.175781 C 332.289062 -0.550781 327.277344 -0.371094 322.796875 1.675781 L 313.703125 5.828125 C 309.21875 7.871094 305.800781 11.539062 304.078125 16.15625 C 302.355469 20.773438 302.53125 25.785156 304.578125 30.265625 L 306.105469 33.617188 L 295.460938 43.871094 L 267.578125 22.078125 C 255.808594 12.886719 239.394531 12.902344 227.648438 22.109375 L 56.867188 156.007812 C 56.863281 156.007812 56.863281 156.011719 56.863281 156.011719 L 15.484375 188.453125 C 9.933594 192.804688 5.71875 198.421875 3.179688 204.703125 C 3.167969 204.738281 3.152344 204.773438 3.136719 204.808594 C 2.535156 206.3125 2.03125 207.851562 1.625 209.425781 C 1.582031 209.59375 1.539062 209.761719 1.5 209.929688 C 1.316406 210.679688 1.148438 211.4375 1.011719 212.203125 C 0.671875 214.121094 0.5 215.964844 0.5 217.679688 L 0.5 489.84375 C 0.5 502.058594 10.4375 512 22.65625 512 L 473.71875 512 C 473.871094 512 474.023438 511.980469 474.179688 511.976562 C 474.34375 511.972656 474.507812 511.964844 474.671875 511.953125 C 479.851562 511.730469 484.78125 509.722656 488.640625 506.195312 C 489.277344 505.617188 489.792969 504.9375 490.191406 504.191406 C 493.488281 500.324219 495.484375 495.3125 495.484375 489.84375 L 495.484375 217.679688 C 495.488281 217.25 495.476562 216.816406 495.453125 216.375 Z M 319.929688 19.472656 L 329.023438 15.320312 C 329.535156 15.089844 330.019531 15.007812 330.445312 15.007812 C 330.960938 15.007812 331.386719 15.125 331.660156 15.226562 C 332.160156 15.414062 333.074219 15.894531 333.589844 17.027344 L 420.347656 207.105469 C 421.136719 208.835938 420.371094 210.882812 418.644531 211.671875 C 418.644531 211.671875 418.644531 211.671875 418.640625 211.671875 L 409.542969 215.824219 C 408.417969 216.335938 407.410156 216.101562 406.910156 215.917969 C 406.410156 215.730469 405.496094 215.25 404.980469 214.117188 L 318.222656 24.039062 C 317.433594 22.308594 318.199219 20.261719 319.929688 19.472656 Z M 312.707031 48.082031 L 384.242188 204.804688 L 235.582031 218.171875 L 205.210938 151.628906 Z M 228.738281 294.558594 C 232.457031 302.296875 237.75 304.902344 241.617188 306.804688 C 244.617188 308.28125 246.121094 309.023438 247.625 312.144531 C 247.621094 312.183594 247.578125 312.34375 247.410156 312.425781 L 234.898438 318.4375 C 228.742188 321.394531 221.328125 318.792969 218.390625 312.6875 L 190.238281 252.949219 L 206.007812 245.75 C 206.394531 247.492188 207.015625 249.359375 207.980469 251.359375 C 211.695312 259.097656 216.992188 261.703125 220.859375 263.605469 C 223.859375 265.082031 225.367188 265.824219 226.839844 268.890625 C 228.3125 271.953125 227.949219 273.589844 227.226562 276.855469 C 226.296875 281.0625 225.019531 286.824219 228.738281 294.558594 Z M 168.113281 246.558594 C 166.136719 247.457031 163.921875 247.539062 161.886719 246.777344 C 159.847656 246.015625 158.226562 244.507812 157.324219 242.527344 L 135.535156 194.789062 C 134.632812 192.8125 134.554688 190.601562 135.3125 188.5625 C 136.074219 186.523438 137.585938 184.902344 139.5625 184 L 192.472656 159.851562 L 221.023438 222.410156 Z M 140.582031 241.96875 L 129.761719 246.90625 C 128.578125 247.449219 127.519531 247.203125 126.996094 247.007812 C 126.472656 246.8125 125.511719 246.308594 124.972656 245.121094 L 112.667969 218.160156 C 111.839844 216.347656 112.640625 214.199219 114.453125 213.371094 L 125.273438 208.433594 Z M 24.738281 200.257812 L 236.902344 33.914062 C 243.210938 28.972656 252.023438 28.960938 258.339844 33.898438 L 284.550781 54.378906 L 191.898438 143.621094 L 133.335938 170.351562 C 127.710938 172.917969 123.421875 177.523438 121.261719 183.3125 C 119.921875 186.898438 119.503906 190.667969 119.984375 194.359375 L 108.226562 199.722656 C 98.890625 203.988281 94.761719 215.050781 99.019531 224.386719 L 111.328125 251.347656 C 113.390625 255.871094 117.09375 259.320312 121.75 261.058594 C 123.871094 261.847656 126.074219 262.242188 128.269531 262.242188 C 130.902344 262.242188 133.523438 261.679688 135.992188 260.554688 L 147.972656 255.085938 C 150.359375 257.605469 153.292969 259.582031 156.640625 260.832031 C 159.277344 261.816406 162.015625 262.304688 164.746094 262.304688 C 168.015625 262.304688 171.277344 261.601562 174.34375 260.203125 L 176.59375 259.175781 L 204.847656 319.136719 C 209.558594 328.933594 219.371094 334.65625 229.578125 334.65625 C 233.550781 334.65625 237.582031 333.789062 241.394531 331.957031 L 253.910156 325.945312 C 261.484375 322.300781 264.746094 313.226562 261.175781 305.710938 C 261.15625 305.664062 261.132812 305.617188 261.121094 305.59375 C 257.402344 297.855469 252.105469 295.25 248.242188 293.347656 C 245.238281 291.871094 243.730469 291.128906 242.257812 288.0625 C 240.789062 285.003906 241.152344 283.363281 241.875 280.097656 C 242.804688 275.890625 244.078125 270.128906 240.359375 262.394531 C 236.644531 254.65625 231.347656 252.050781 227.480469 250.148438 C 224.480469 248.671875 222.972656 247.929688 221.5 244.863281 C 220.390625 242.558594 220.324219 241.058594 220.664062 239.0625 L 232.910156 233.472656 L 390.84375 219.273438 L 391.335938 220.347656 C 393.382812 224.832031 397.050781 228.25 401.664062 229.972656 C 403.765625 230.753906 405.949219 231.144531 408.125 231.144531 C 410.730469 231.144531 413.332031 230.585938 415.773438 229.46875 L 424.871094 225.320312 C 429.351562 223.273438 432.769531 219.605469 434.492188 214.988281 C 436.214844 210.375 436.039062 205.363281 433.992188 200.878906 L 412.910156 154.6875 L 471.222656 200.257812 C 472.398438 201.175781 473.476562 202.1875 474.453125 203.265625 L 258.339844 372.144531 C 252.023438 377.082031 243.207031 377.074219 236.902344 372.128906 L 21.523438 203.261719 C 22.492188 202.1875 23.566406 201.175781 24.738281 200.257812 Z M 480.488281 488.179688 C 458.011719 469.070312 408.664062 427.152344 361.75 387.609375 C 358.582031 384.9375 353.851562 385.34375 351.183594 388.507812 C 348.515625 391.675781 348.917969 396.40625 352.082031 399.078125 C 396.945312 436.894531 444.039062 476.882812 467.707031 497 L 27.46875 497 C 52.429688 475.933594 98.203125 437.355469 142.042969 400.65625 C 145.21875 397.996094 145.640625 393.269531 142.980469 390.089844 C 140.320312 386.917969 135.589844 386.496094 132.414062 389.15625 C 87.167969 427.03125 39.875 466.898438 15.5 487.472656 L 15.5 217.679688 C 15.5 217.65625 15.503906 217.628906 15.503906 217.605469 L 181.78125 347.972656 C 174.78125 353.785156 167.429688 359.90625 159.855469 366.222656 C 156.675781 368.875 156.246094 373.605469 158.898438 376.785156 C 160.382812 378.5625 162.515625 379.480469 164.664062 379.480469 C 166.355469 379.480469 168.058594 378.910156 169.460938 377.742188 C 177.933594 370.675781 186.125 363.859375 193.859375 357.441406 L 227.648438 383.933594 C 233.53125 388.542969 240.578125 390.851562 247.632812 390.851562 C 254.667969 390.847656 261.703125 388.554688 267.578125 383.964844 L 302.03125 357.039062 C 309.25 363.074219 316.871094 369.457031 324.746094 376.074219 C 326.152344 377.253906 327.863281 377.832031 329.566406 377.832031 C 331.707031 377.832031 333.828125 376.921875 335.3125 375.152344 C 337.976562 371.980469 337.5625 367.25 334.390625 364.589844 C 327.398438 358.714844 320.605469 353.019531 314.117188 347.59375 L 480.480469 217.585938 C 480.480469 217.617188 480.488281 217.648438 480.488281 217.679688 Z M 480.488281 488.179688 " style=" stroke:none;fill-rule:nonzero;fill:rgb(0%,0%,0%);fill-opacity:1;" />
</g>
</svg>