<svg id="light" enable-background="new 0 0 24 24" height="512" viewBox="0 0 24 24" width="512" xmlns="http://www.w3.org/2000/svg"><g><path d="m20.4 12h-1.8c-.5 0-1.1-.4-1.1-1.3v-1.3c0-.5-.3-1-.7-1.4-1.2-.9-1.8-2.2-1.8-3.6 0-2.4 2-4.4 4.4-4.4 1.2 0 2.4.4 3.2 1.3.9.8 1.3 2 1.3 3.2 0 1.3-.6 2.6-1.7 3.5-.5.4-.8 1-.8 1.6v1.4c.1.5-.4 1-1 1zm-.9-11c-1.9 0-3.5 1.6-3.5 3.4 0 1.1.5 2.1 1.3 2.8.7.6 1.1 1.4 1.1 2.2v1.3s0 .3.1.3h1.8c.1 0 .1 0 .1-.1v-1.4c0-.9.4-1.7 1.2-2.3.9-.7 1.4-1.7 1.4-2.7 0-.9-.4-1.8-1-2.5-.7-.6-1.6-1-2.5-1z"/></g><g><path d="m21 10h-3c-.3 0-.5-.2-.5-.5s.2-.5.5-.5h3c.3 0 .5.2.5.5s-.2.5-.5.5z"/></g><g><path d="m17.5 24h-9c-.3 0-.5-.2-.5-.5v-3.3l-2.4.7c-.2.1-.4.1-.6.1-1.1 0-2-.9-2-2v-3h-2c-.6 0-1-.4-1-1 0-.2.1-.4.2-.5l2.3-3.7c.3-.6.5-1.2.5-1.8 0-2.4.9-4.7 2.6-6.4 1.7-1.7 4-2.6 6.4-2.6 1 0 2 .2 2.9.5.3.1.4.4.3.6s-.4.4-.6.3c-.9-.3-1.7-.4-2.6-.4-2.1 0-4.1.8-5.7 2.3s-2.3 3.6-2.3 5.7c0 .8-.2 1.6-.7 2.3l-2.3 3.7h2.5c.3 0 .5.2.5.5v3.5c0 .6.4 1 1 1h.3l3.1-1c.2 0 .3 0 .4.1s.2.2.2.4v3.5h8v-4.5c0-1.7.5-3.4 1.5-4.9.1-.1.2-.2.2-.4.1-.2.5-.3.7-.2s.3.5.2.7c-.1.1-.2.3-.3.4-.9 1.3-1.4 2.8-1.4 4.3v5c.1.4-.1.6-.4.6z"/></g></svg>