<svg height="496pt" viewBox="0 0 496 496" width="496pt" xmlns="http://www.w3.org/2000/svg"><path d="m128 0v32h-128v192h112v-16h-88.632812l28.839843-41.199219c9.984375-14.28125 26.359375-22.800781 43.792969-22.800781s33.808594 8.519531 43.800781 22.800781l28.832031 41.199219h-40.632812v288h368v-496zm-88.902344 157.632812-23.097656 32.992188v-142.625h272v115.574219l-10.046875-32.148438c-9.609375-30.761719-37.722656-51.425781-69.953125-51.425781s-60.34375 20.664062-69.953125 51.433594l-2.742187 8.773437c-11.425782-7.839843-25.089844-12.207031-39.304688-12.207031-22.648438 0-43.921875 11.070312-56.902344 29.632812zm113.804688 0c-1.390625-1.992187-2.925782-3.855468-4.503906-5.671874l4.921874-15.753907c7.511719-24.046875 29.488282-40.207031 54.679688-40.207031s47.167969 16.160156 54.679688 40.199219l22.441406 71.800781h-96.953125zm327.097656 322.367188h-336v-256h160v-192h-160v-16h336zm0 0"/><path d="m160 464h48v-96h-48zm16-80h16v64h-16zm0 0"/><path d="m224 464h48v-160h-48zm16-144h16v128h-16zm0 0"/><path d="m288 464h48v-128h-48zm16-112h16v96h-16zm0 0"/><path d="m352 464h48v-96h-48zm16-80h16v64h-16zm0 0"/><path d="m416 464h48v-112h-48zm16-96h16v80h-16zm0 0"/><path d="m271.703125 266.902344c.121094-.957032.296875-1.910156.296875-2.902344 0-13.230469-10.769531-24-24-24s-24 10.769531-24 24c0 3.695312.902344 7.152344 2.40625 10.28125l-32.117188 32.117188c-3.136718-1.496094-6.59375-2.398438-10.289062-2.398438-13.230469 0-24 10.769531-24 24s10.769531 24 24 24 24-10.769531 24-24c0-3.695312-.902344-7.152344-2.40625-10.28125l32.117188-32.117188c3.136718 1.496094 6.59375 2.398438 10.289062 2.398438 6.457031 0 12.296875-2.59375 16.617188-6.753906l23.679687 11.84375c-.121094.964844-.296875 1.910156-.296875 2.910156 0 13.230469 10.769531 24 24 24 6.457031 0 12.296875-2.59375 16.609375-6.742188l23.679687 11.839844c-.113281.957032-.289062 1.910156-.289062 2.902344 0 13.230469 10.769531 24 24 24 12.449219 0 22.585938-9.550781 23.769531-21.695312l20.246094-5.066407c4.296875 6.472657 11.648437 10.761719 19.984375 10.761719 13.230469 0 24-10.769531 24-24s-10.769531-24-24-24c-12.449219 0-22.59375 9.558594-23.769531 21.703125l-20.238281 5.066406c-4.304688-6.480469-11.648438-10.769531-19.992188-10.769531-6.457031 0-12.296875 2.59375-16.617188 6.753906l-23.679687-11.84375c.121094-.964844.296875-1.910156.296875-2.910156 0-13.230469-10.769531-24-24-24-6.457031 0-12.296875 2.59375-16.609375 6.742188zm-87.703125 69.097656c-4.40625 0-8-3.585938-8-8s3.59375-8 8-8 8 3.585938 8 8-3.59375 8-8 8zm64-64c-4.40625 0-8-3.585938-8-8s3.59375-8 8-8 8 3.585938 8 8-3.59375 8-8 8zm192 32c4.40625 0 8 3.585938 8 8s-3.59375 8-8 8-8-3.585938-8-8 3.59375-8 8-8zm-64 16c4.40625 0 8 3.585938 8 8s-3.59375 8-8 8-8-3.585938-8-8 3.59375-8 8-8zm-64-32c4.40625 0 8 3.585938 8 8s-3.59375 8-8 8-8-3.585938-8-8 3.59375-8 8-8zm0 0"/><path d="m392 272c39.695312 0 72-32.304688 72-72s-32.304688-72-72-72-72 32.304688-72 72 32.304688 72 72 72zm0-128c30.878906 0 56 25.121094 56 56s-25.121094 56-56 56-56-25.121094-56-56 25.121094-56 56-56zm0 0"/><path d="m320 32h144v16h-144zm0 0"/><path d="m320 64h144v16h-144zm0 0"/><path d="m448 96h16v16h-16zm0 0"/><path d="m320 96h112v16h-112zm0 0"/><path d="m56 64c-13.230469 0-24 10.769531-24 24s10.769531 24 24 24 24-10.769531 24-24-10.769531-24-24-24zm0 32c-4.40625 0-8-3.59375-8-8s3.59375-8 8-8 8 3.59375 8 8-3.59375 8-8 8zm0 0"/></svg>