<svg height="496pt" viewBox="0 0 496 496" width="496pt" xmlns="http://www.w3.org/2000/svg"><path d="m96 48c-26.472656 0-48 21.527344-48 48s21.527344 48 48 48 48-21.527344 48-48-21.527344-48-48-48zm0 80c-17.648438 0-32-14.351562-32-32s14.351562-32 32-32 32 14.351562 32 32-14.351562 32-32 32zm0 0"/><path d="m472 256c-10.414062 0-19.214844 6.710938-22.527344 16h-17.472656v-64h-16v64h-16v-32h-16v32h-16v-48h-16v48h-4.855469l-75.015625-69.664062c5.03125-7.664063 7.871094-16.777344 7.871094-26.335938 0-13.113281-5.296875-25-13.847656-33.671875l49.382812-54.328125h20.863282c4.027343 40.367188 38.1875 72 79.59375 72 44.113281 0 80-35.886719 80-80s-35.878907-80-79.992188-80c-41.414062 0-75.566406 31.632812-79.59375 72h-27.941406l-55.394532 60.9375c-6.375-3.128906-13.511718-4.9375-21.070312-4.9375-.238281 0-.472656.03125-.703125.03125l-8.871094-40.03125h-30.425781v-13.769531l-21.449219-7.152344c-.4375-1.117187-.902343-2.230469-1.390625-3.34375l10.121094-20.230469-30.785156-30.785156-20.230469 10.121094c-1.113281-.496094-2.226563-.960938-3.34375-1.390625l-7.152344-21.449219h-43.53125l-7.148437 21.449219c-1.121094.4375-2.234375.902343-3.347656 1.390625l-20.230469-10.113282-30.785157 30.785157 10.121094 20.230469c-.496094 1.113281-.960937 2.226562-1.390625 3.347656l-21.457031 7.140625v43.53125l21.449219 7.148437c.4375 1.121094.902343 2.234375 1.390625 3.347656l-10.121094 20.230469 30.785156 30.785157 20.230469-10.121094c1.113281.496094 2.226563.960937 3.335937 1.398437l7.160157 21.449219h43.53125l7.148437-21.449219c1.113282-.4375 2.226563-.902343 3.335938-1.398437l20.234375 10.121094 30.785156-30.785157-10.121094-20.230469c.496094-1.113281.960938-2.226562 1.390625-3.347656l21.464844-7.140625v-13.769531h17.574219l5.976562 26.960938c-18.375 6.734374-31.550781 24.351562-31.550781 45.039062 0 13.207031 5.464844 25.40625 14.542969 34.273438l-42.734375 61.726562h-11.808594v-48h-16v48h-16v-64h-16v64h-16v-32h-16v32h-17.472656c-3.3125-9.289062-12.113282-16-22.527344-16-13.230469 0-24 10.769531-24 24s10.769531 24 24 24c10.414062 0 19.214844-6.710938 22.527344-16h117.664062l43.808594-63.28125v163.90625c-1.511719-1.554688-2.585938-3.546875-2.992188-5.800781l-14.335937-78.824219h-21.230469c-14.027344 0-25.441406 11.414062-25.441406 25.441406v5.109375c0 1.410157.121094 2.816407.34375 4.183594l14.390625 86.355469c1.121094 6.71875 3.96875 13.09375 8.226563 18.40625l19.78125 24.726562c3.394531 4.25 5.257812 9.578125 5.257812 15v12.777344h128v-12.777344c0-5.429687 1.863281-10.75 5.257812-15l17.972657-22.46875c5.65625-7.058594 8.769531-15.929687 8.769531-24.976562v-84.777344c0-13.230469-10.769531-24-24-24-3.160156 0-6.160156.648438-8.929688 1.761719-2.757812-10.203125-12.007812-17.761719-23.070312-17.761719-2.816406 0-5.488281.574219-8 1.472656v-1.472656c0-13.230469-10.769531-24-24-24-2.816406 0-5.488281.574219-8 1.472656v-56c1.816406-1.046875 3.519531-2.214844 5.160156-3.480468l79.695313 74.007812h108.617187c3.3125 9.289062 12.113282 16 22.527344 16 13.230469 0 24-10.769531 24-24s-10.769531-24-24-24zm-120-176c0-8.792969 1.785156-17.183594 5.007812-24.816406l14.046876 8.113281c-1.941407 5.207031-3.054688 10.824219-3.054688 16.703125s1.113281 11.496094 3.054688 16.703125l-14.046876 8.113281c-3.222656-7.632812-5.007812-16.023437-5.007812-24.816406zm64-32c17.648438 0 32 14.351562 32 32s-14.351562 32-32 32-32-14.351562-32-32 14.351562-32 32-32zm64 32c0 8.792969-1.785156 17.183594-5.007812 24.816406l-14.046876-8.113281c1.941407-5.207031 3.054688-10.824219 3.054688-16.703125s-1.113281-11.496094-3.054688-16.703125l14.046876-8.113281c3.222656 7.632812 5.007812 16.023437 5.007812 24.816406zm-114.902344 38.632812 13.933594-8.046874c7.191406 8.679687 17.394531 14.742187 28.96875 16.695312v16.167969c-17.472656-2.203125-32.734375-11.449219-42.902344-24.816407zm58.902344 24.816407v-16.167969c11.574219-1.953125 21.777344-8.015625 28.96875-16.695312l13.933594 8.046874c-10.167969 13.367188-25.429688 22.613282-42.902344 24.816407zm42.902344-102.082031-13.933594 8.046874c-7.191406-8.671874-17.394531-14.734374-28.96875-16.695312v-16.167969c17.472656 2.203125 32.734375 11.449219 42.902344 24.816407zm-58.902344-24.816407v16.167969c-11.574219 1.953125-21.777344 8.015625-28.96875 16.695312l-13.933594-8.046874c10.167969-13.367188 25.429688-22.613282 42.902344-24.816407zm-232 89.679688-18 6-1.257812 3.816406c-.949219 2.890625-2.167969 5.816406-3.628907 8.695313l-1.816406 3.59375 8.496094 17-14.472657 14.472656-16.992187-8.496094-3.585937 1.808594c-2.910157 1.464844-5.839844 2.6875-8.703126 3.632812l-3.816406 1.253906-5.992187 17.992188h-20.46875l-6-18-3.816407-1.257812c-2.867187-.941407-5.800781-2.167969-8.707031-3.628907l-3.582031-1.808593-16.992188 8.496093-14.472656-14.472656 8.496094-17-1.808594-3.585937c-1.453125-2.886719-2.671875-5.8125-3.632812-8.695313l-1.246094-3.816406-18-6v-20.46875l18-6 1.257812-3.816407c.949219-2.890624 2.167969-5.816406 3.628907-8.699218l1.816406-3.589844-8.511719-16.992188 14.472656-14.472656 17 8.496094 3.59375-1.808594c2.886719-1.453125 5.8125-2.671875 8.695313-3.632812l3.816406-1.253906 6-17.992188h20.46875l6 18 3.816407 1.257812c2.890624.949219 5.816406 2.167969 8.699218 3.628907l3.589844 1.816406 17-8.496094 14.472656 14.472657-8.496094 17 1.816407 3.59375c1.457031 2.886718 2.671875 5.816406 3.632812 8.695312l1.253907 3.816406 18 6v20.445313zm-152 181.769531c-4.40625 0-8-3.59375-8-8s3.59375-8 8-8 8 3.59375 8 8-3.59375 8-8 8zm208-144c17.648438 0 32 14.351562 32 32 0 8.078125-3.054688 15.65625-8.257812 21.425781-1.300782-12.011719-11.390626-21.425781-23.742188-21.425781-12.367188 0-22.457031 9.433594-23.742188 21.457031-5.210937-5.761719-8.257812-13.34375-8.257812-21.457031 0-17.648438 14.351562-32 32-32zm32 144c4.40625 0 8 3.59375 8 8v96h16v-72c0-4.40625 3.59375-8 8-8s8 3.59375 8 8v72h16v-56c0-4.40625 3.59375-8 8-8s8 3.59375 8 8v84.777344c0 5.429687-1.863281 10.75-5.257812 15l-17.972657 22.46875c-4.984375 6.226562-7.992187 13.851562-8.632812 21.761718h-96.273438c-.648437-7.910156-3.65625-15.535156-8.632812-21.761718l-19.78125-24.726563c-2.554688-3.191406-4.265625-7.007812-4.9375-11.046875l-14.390625-86.367187c-.082032-.519531-.121094-1.035157-.121094-1.554688v-5.109375c0-5.210937 4.230469-9.441406 9.441406-9.441406h7.878906l11.945313 65.6875c2.359375 12.929688 13.597656 22.3125 26.734375 22.3125h8v-208c0-4.40625 3.59375-8 8-8s8 3.59375 8 8v192h16v-96c0-4.40625 3.59375-8 8-8zm208 0c-4.40625 0-8-3.59375-8-8s3.59375-8 8-8 8 3.59375 8 8-3.59375 8-8 8zm0 0"/></svg>