<svg height="512" viewBox="0 0 74 74" width="512" xmlns="http://www.w3.org/2000/svg"><g id="Numbers"><text fill="rgb(0,0,0)" font-family="ArialMT, Arial" font-size="18" transform="translate(31.995 -18.544)">6<tspan x="-5.005" y="124">16</tspan><tspan x="-5.005" y="248">26</tspan><tspan x="-5.005" y="372">36</tspan><tspan x="-5.005" y="496">46</tspan><tspan x="-5.005" y="620">56</tspan><tspan x="-5.005" y="744">66</tspan><tspan x="-5.005" y="868">76</tspan><tspan x="-5.005" y="992">86</tspan><tspan x="-5.005" y="1116">96</tspan><tspan x="-10.011" y="1240">106</tspan><tspan letter-spacing="-.074em" x="-9.343" y="1364">1</tspan><tspan x="-.668" y="1364">16</tspan><tspan x="-10.011" y="1488">126</tspan><tspan x="-10.011" y="1612">136</tspan><tspan x="-10.011" y="1736">146</tspan><tspan x="-10.011" y="1860">156</tspan><tspan x="-10.011" y="1984">166</tspan><tspan x="-10.011" y="2108">176</tspan><tspan x="-10.011" y="2232">186</tspan><tspan x="-10.011" y="2356">196</tspan><tspan x="-10.011" y="2480">206</tspan><tspan x="-10.011" y="2604">216</tspan><tspan x="-10.011" y="2728">226</tspan><tspan x="-10.011" y="2852">236</tspan><tspan x="-10.011" y="2976">246</tspan><tspan x="-10.011" y="3100">256</tspan><tspan x="-10.011" y="3224">266</tspan><tspan x="-10.011" y="3348">276</tspan><tspan x="-10.011" y="3472">286</tspan><tspan x="-10.011" y="3596">296</tspan></text></g><g id="_2_PT" data-name="2 PT"><path d="m70.236 60h-66.472l-.219-.7a35 35 0 1 1 68.455-10.3 34.7 34.7 0 0 1 -1.545 10.3zm-64.99-2h63.508a33 33 0 1 0 -64.754-9 32.77 32.77 0 0 0 1.246 9z"/><path d="m36 15h2v5h-2z"/><path d="m20.25 19.22h2v5h-2z" transform="matrix(.866 -.5 .5 .866 -8.013 13.535)"/><path d="m8.72 30.75h2v5.001h-2z" transform="matrix(.5 -.866 .866 .5 -23.936 25.046)"/><path d="m3 48h5v2h-5z"/><path d="m66 48h5v2h-5z"/><path d="m61.779 32.25h5.001v2h-5.001z" transform="matrix(.866 -.5 .5 .866 -8.013 36.588)"/><path d="m50.25 20.72h5v2h-5z" transform="matrix(.5 -.866 .866 .5 7.568 56.547)"/><path d="m37 54a5 5 0 1 1 5-5 5.006 5.006 0 0 1 -5 5zm0-8a3 3 0 1 0 3 3 3 3 0 0 0 -3-3z"/><path d="m27.316 32.034h2v16.563h-2z" transform="matrix(.707 -.707 .707 .707 -20.214 31.831)"/></g></svg>