<svg id="Layer_5" enable-background="new 0 0 64 64" height="512" viewBox="0 0 64 64" width="512" xmlns="http://www.w3.org/2000/svg"><g><path d="m48 53c2.757 0 5-2.243 5-5s-2.243-5-5-5-5 2.243-5 5 2.243 5 5 5zm0-8c1.654 0 3 1.346 3 3s-1.346 3-3 3-3-1.346-3-3 1.346-3 3-3z"/><path d="m63 51.777v-7.555l-2.802-.713c-.119-.318-.252-.639-.4-.956l1.48-2.489-4.278-4.277v-16.787h-8v14h-4.777l-.713 2.802c-.319.119-.639.253-.956.4l-.554-.329v-5.873h-8v9c-2.839 0-5.543 1.365-7.233 3.652-.222.3-.487.537-.767.741v-21.393h-8v22h-6v-8h-8v8.142c-1.72.447-3 1.999-3 3.858 0 2.206 1.794 4 4 4h19.266c.955 0 1.867.491 2.5 1.348 1.691 2.287 4.395 3.652 7.234 3.652.551 0 1.091-.067 1.623-.163l4.441 4.441 2.489-1.479c.317.147.637.281.956.4l.714 2.801h7.555l.713-2.802c.319-.119.639-.253.956-.4l2.489 1.479 5.342-5.342-1.48-2.489c.147-.317.281-.638.4-.956zm-12-30.777h4v14.279l-1.554.923c-.317-.147-.637-.281-.956-.4l-.713-2.802h-.777zm-11 11v2.787l-4 4v-6.787zm-20-8h4v20h-4zm-10 14v6h-4v-6zm18.374 14.158c-1.015-1.372-2.512-2.158-4.108-2.158h-19.266c-1.103 0-2-.897-2-2s.897-2 2-2h19.266c1.596 0 3.093-.786 4.108-2.158 1.335-1.806 3.386-2.842 5.626-2.842 2.331 0 4.507 1.136 5.814 3h-3.717c-1.707 0-3.097 1.39-3.097 3.098v1.805c0 1.707 1.39 3.097 3.098 3.097h3.717c-1.307 1.864-3.484 3-5.814 3-2.241 0-4.292-1.036-5.627-2.842zm10.858-2.158h-3.135c-.605 0-1.097-.492-1.097-1.098v-1.805c0-.605.492-1.097 1.098-1.097h3.135c-.149.653-.233 1.32-.233 2s.084 1.347.232 2zm2.08.063c-.205-.665-.312-1.356-.312-2.063s.107-1.398.312-2.063c.397-.132.688-.495.688-.937v-.585c1.263-2.108 3.535-3.415 6-3.415 3.86 0 7 3.141 7 7s-3.14 7-7 7c-2.465 0-4.737-1.307-6-3.415v-.585c0-.442-.291-.805-.688-.937zm17.452 5.558-3.143 3.143-2.096-1.246-.493.256c-.558.288-1.124.525-1.683.704l-.528.168-.598 2.354h-4.445l-.599-2.354-.528-.168c-.559-.179-1.125-.416-1.683-.704l-.493-.256-2.096 1.246-2.598-2.598c1.257-.571 2.374-1.418 3.255-2.492 1.693 2.075 4.235 3.326 6.964 3.326 4.962 0 9-4.037 9-9s-4.038-9-9-9c-2.729 0-5.271 1.251-6.964 3.326-.882-1.074-1.998-1.921-3.255-2.492l2.598-2.598 2.096 1.246.493-.256c.558-.288 1.124-.525 1.683-.704l.528-.168.598-2.354h4.445l.599 2.354.528.168c.559.179 1.125.416 1.683.704l.493.256 2.096-1.246 3.143 3.143-1.246 2.095.254.492c.289.56.525 1.126.704 1.686l.169.528 2.355.597v4.445l-2.354.598-.169.528c-.179.56-.415 1.126-.704 1.686l-.254.492z"/><path d="m53 13c2.206 0 4-1.794 4-4s-1.794-4-4-4-4 1.794-4 4 1.794 4 4 4zm0-6c1.103 0 2 .897 2 2s-.897 2-2 2-2-.897-2-2 .897-2 2-2z"/><path d="m22 16c2.206 0 4-1.794 4-4s-1.794-4-4-4-4 1.794-4 4 1.794 4 4 4zm0-6c1.103 0 2 .897 2 2s-.897 2-2 2-2-.897-2-2 .897-2 2-2z"/><path d="m38 24c1.654 0 3-1.346 3-3s-1.346-3-3-3-3 1.346-3 3 1.346 3 3 3zm0-4c.551 0 1 .448 1 1s-.449 1-1 1-1-.448-1-1 .449-1 1-1z"/><path d="m8 30c1.654 0 3-1.346 3-3s-1.346-3-3-3-3 1.346-3 3 1.346 3 3 3zm0-4c.551 0 1 .448 1 1s-.449 1-1 1-1-.448-1-1 .449-1 1-1z"/><path d="m8 34c3.86 0 7-3.141 7-7 0-1.656-.581-3.177-1.546-4.378l3.87-4.146c1.316.955 2.929 1.524 4.676 1.524 2.629 0 4.958-1.28 6.417-3.244l3.06 1.722c-.304.784-.477 1.632-.477 2.522 0 3.859 3.14 7 7 7s7-3.141 7-7c0-1.293-.359-2.501-.972-3.541l3.406-2.725c1.441 1.4 3.403 2.266 5.566 2.266 4.411 0 8-3.589 8-8s-3.589-8-8-8-8 3.589-8 8c0 1.529.439 2.954 1.186 4.17l-3.409 2.727c-1.252-1.172-2.93-1.897-4.777-1.897-2.255 0-4.259 1.076-5.54 2.737l-3.056-1.719c.382-.932.596-1.95.596-3.018 0-4.411-3.589-8-8-8s-8 3.589-8 8c0 1.945.699 3.728 1.857 5.116l-3.865 4.141c-1.134-.79-2.509-1.257-3.992-1.257-3.86 0-7 3.141-7 7s3.14 7 7 7zm45-31c3.309 0 6 2.691 6 6s-2.691 6-6 6-6-2.691-6-6 2.691-6 6-6zm-15 13c2.757 0 5 2.243 5 5s-2.243 5-5 5-5-2.243-5-5 2.243-5 5-5zm-16-10c3.309 0 6 2.691 6 6s-2.691 6-6 6-6-2.691-6-6 2.691-6 6-6zm-14 16c2.757 0 5 2.243 5 5s-2.243 5-5 5-5-2.243-5-5 2.243-5 5-5z"/></g></svg>