<svg id="Capa_1" enable-background="new 0 0 512 512" height="512" viewBox="0 0 512 512" width="512" xmlns="http://www.w3.org/2000/svg"><g><g><path d="m478.898 454.774c-.899-4.055-4.913-6.615-8.971-5.716-4.056.899-6.615 4.916-5.716 8.972.503 2.268.758 4.608.758 6.957 0 17.628-14.342 31.97-31.97 31.97-4.154 0-7.522 3.368-7.522 7.522s3.368 7.522 7.522 7.522c25.923 0 47.014-21.09 47.014-47.014-.001-3.442-.376-6.879-1.115-10.213z"/><path d="m256 200.464c26.663 0 48.354-21.692 48.354-48.354 0-26.663-21.692-48.355-48.354-48.355s-48.354 21.692-48.354 48.355c0 26.662 21.691 48.354 48.354 48.354zm0-81.666c18.367 0 33.31 14.943 33.31 33.311 0 18.367-14.943 33.311-33.31 33.311s-33.31-14.943-33.31-33.311c0-18.367 14.943-33.311 33.31-33.311z"/><path d="m128.851 293.815h48.364v29.607c-7.389 2.055-12.833 8.826-12.833 16.861v15.763c0 9.658 7.857 17.516 17.516 17.516h13.087l8.844 20.392c2.896 6.679 9.47 10.995 16.75 10.995h70.842c7.28 0 13.855-4.316 16.751-10.995l8.844-20.393h13.086c9.659 0 17.516-7.857 17.516-17.516v-15.763c0-8.035-5.445-14.806-12.833-16.861v-29.607h48.368c9.161 0 16.614-7.453 16.614-16.614v-33.998c0-3.979-1.43-7.83-4.027-10.844l-60.955-70.75v-31.039c0-36.647-12.818-71.943-36.092-99.386-7.512-8.857-15.851-17.152-24.785-24.651-10.377-8.712-25.439-8.712-35.816 0-8.934 7.499-17.273 15.794-24.784 24.651-23.274 27.443-36.092 62.739-36.092 99.386v31.043l-21.389 24.826c-2.711 3.147-2.358 7.897.789 10.608s7.897 2.358 10.609-.789l9.991-11.597v94.109h-48.364c-.866 0-1.57-.704-1.57-1.57v-33.998c0-.376.135-.74.38-1.024l16.92-19.639c2.712-3.147 2.358-7.897-.789-10.609-3.147-2.711-7.897-2.358-10.609.789l-16.92 19.639c-2.596 3.014-4.026 6.865-4.026 10.844v33.998c0 9.164 7.452 16.616 16.613 16.616zm255.49-51.636c.246.285.381.649.381 1.025v33.998c0 .866-.704 1.57-1.57 1.57h-48.365l-.003-94.113zm-89.972 145.791c-.509 1.176-1.667 1.935-2.949 1.935h-70.842c-1.281 0-2.439-.76-2.949-1.936l-6.248-14.407h89.236zm-69.588-347.055c6.965-8.212 14.698-15.903 22.984-22.86 4.772-4.005 11.699-4.006 16.471 0 8.286 6.956 16.019 14.647 22.984 22.86 2.039 2.404 10.389 14.006 10.534 14.233h-83.508c.21-.326 7.972-11.211 10.535-14.233zm-32.522 123.438v-33.782c0-21.147 4.725-41.782 13.606-60.379h100.269c8.88 18.597 13.606 39.231 13.606 60.379v192.197h-127.481l.004-158.364c0-.018-.003-.034-.004-.051zm-12.833 175.93c0-1.363 1.109-2.472 2.472-2.472h2.77 145.433c1.363 0 2.472 1.109 2.472 2.472v15.763c0 1.363-1.109 2.472-2.472 2.472h-148.203c-1.363 0-2.472-1.109-2.472-2.472z"/><path d="m92.673 372.92c4.154 0 7.522-3.368 7.522-7.522v-44.527c0-4.154-3.368-7.522-7.522-7.522s-7.522 3.368-7.522 7.522v44.527c0 4.154 3.367 7.522 7.522 7.522z"/><path d="m117.454 320.871v15.716c0 4.154 3.368 7.522 7.522 7.522s7.522-3.368 7.522-7.522v-15.716c0-4.154-3.368-7.522-7.522-7.522s-7.522 3.368-7.522 7.522z"/><path d="m419.327 372.92c4.154 0 7.522-3.368 7.522-7.522v-44.527c0-4.154-3.368-7.522-7.522-7.522s-7.522 3.368-7.522 7.522v44.527c0 4.154 3.368 7.522 7.522 7.522z"/><path d="m379.502 320.871v15.716c0 4.154 3.368 7.522 7.522 7.522s7.522-3.368 7.522-7.522v-15.716c0-4.154-3.368-7.522-7.522-7.522-4.155 0-7.522 3.368-7.522 7.522z"/><path d="m429.093 425.603c-.033 3.915 2.942 7.201 6.842 7.555 3.99.363 7.824 1.456 11.394 3.249 3.713 1.866 8.233.368 10.098-3.344s.368-8.233-3.344-10.098c-3.345-1.681-6.845-2.943-10.461-3.778-3.018-18.166-18.842-32.061-37.85-32.061-11.21 0-21.817 4.97-29.038 13.31-7.11-2.997-14.792-4.561-22.55-4.561-20.875 0-39.755 11.021-50.077 28.658-5.398-2.219-11.264-3.433-17.356-3.433-11.463 0-22.435 4.389-30.752 12.019-8.317-7.629-19.29-12.019-30.752-12.019-6.091 0-11.958 1.214-17.356 3.433-10.322-17.637-29.202-28.658-50.077-28.658-7.758 0-15.44 1.564-22.55 4.561-7.221-8.34-17.828-13.31-29.039-13.31-19.005 0-34.827 13.889-37.848 32.051-21.139 4.812-36.391 23.504-36.391 45.81 0 25.923 21.09 47.014 47.014 47.014 4.154 0 7.522-3.368 7.522-7.522s-3.368-7.522-7.522-7.522c-17.628 0-31.97-14.342-31.97-31.97 0-16.642 12.482-30.325 29.034-31.829 3.899-.354 6.874-3.64 6.841-7.555l-.004-.168c.033-12.833 10.484-23.265 23.324-23.265 8.261 0 15.987 4.445 20.16 11.6 2.077 3.56 6.631 4.786 10.214 2.75 6.446-3.664 13.782-5.601 21.214-5.601 15.605 0 29.7 8.317 37.302 21.592-4.252 3.775-7.848 8.37-10.51 13.674-1.863 3.713-.364 8.233 3.349 10.097 1.083.544 2.234.801 3.368.801 2.755 0 5.408-1.519 6.729-4.149 2.446-4.873 6.058-8.863 10.393-11.737.079-.047.161-.087.239-.137 2.305-1.502 4.787-2.658 7.372-3.493 2.923-.92 6.011-1.422 9.192-1.422 9.679 0 18.849 4.668 24.567 12.491.473.682 1.06 1.302 1.771 1.816 2.595 1.875 6.29 1.833 8.828-.002.702-.508 1.284-1.118 1.754-1.791 5.716-7.837 14.894-12.514 24.584-12.514 3.617 0 7.121.628 10.388 1.807-.002.01-.003.02-.005.029 2.158.786 4.233 1.809 6.182 3.078.076.049.157.088.234.135 4.337 2.875 7.951 6.865 10.397 11.739 1.32 2.63 3.974 4.15 6.729 4.149 1.134 0 2.286-.258 3.368-.801 3.713-1.863 5.212-6.384 3.349-10.097-2.662-5.304-6.258-9.898-10.51-13.674 7.602-13.275 21.696-21.592 37.302-21.592 7.432 0 14.768 1.937 21.214 5.601 3.583 2.037 8.138.81 10.214-2.75 4.173-7.155 11.898-11.6 20.159-11.6 12.832 0 23.277 10.417 23.325 23.238-.002.071-.004.15-.004.196z"/><path d="m99.704 466.758c-2.852-1.483-5.196-3.759-6.779-6.58-1.094-1.952-1.774-4.055-2.018-6.252-.46-4.129-4.178-7.101-8.308-6.643-4.129.46-7.103 4.18-6.643 8.308.469 4.209 1.764 8.228 3.849 11.946 3.02 5.383 7.5 9.729 12.958 12.568 1.109.577 2.296.85 3.465.85 2.716 0 5.339-1.476 6.68-4.052 1.915-3.686.481-8.229-3.204-10.145z"/><path d="m352.566 438.334c-3.515-2.218-8.159-1.166-10.375 2.347s-1.166 8.158 2.347 10.375c2.718 1.716 4.864 4.178 6.206 7.122.929 2.037 1.43 4.189 1.491 6.399.113 4.082 3.457 7.315 7.515 7.315.07 0 .141-.001.211-.003 4.153-.115 7.426-3.573 7.312-7.726-.117-4.233-1.072-8.345-2.84-12.224-2.561-5.617-6.664-10.321-11.867-13.605z"/></g></g></svg>