<svg id="light" enable-background="new 0 0 24 24" height="512" viewBox="0 0 24 24" width="512" xmlns="http://www.w3.org/2000/svg"><path d="m18 24c-.066 0-.132-.013-.194-.039-.238-.101-5.806-2.507-5.806-7.425v-4.179c0-.215.137-.405.34-.474l5.5-1.857c.104-.035.217-.035.32 0l5.5 1.857c.203.068.34.259.34.474v4.179c0 4.918-5.568 7.324-5.806 7.425-.062.026-.128.039-.194.039zm-5-11.283v3.819c0 3.784 4.055 5.958 5 6.413.944-.456 5-2.639 5-6.413v-3.819l-5-1.689z"/><path d="m17.5 19c-.009 0-.019 0-.027-.001-.143-.008-.274-.075-.363-.187l-2-2.5c-.172-.216-.138-.53.078-.703.218-.171.532-.136.703.078l1.65 2.063 3.105-3.104c.195-.195.512-.195.707 0s.195.512 0 .707l-3.5 3.5c-.093.094-.221.147-.353.147z"/><path d="m10.5 21h-8c-1.379 0-2.5-1.121-2.5-2.5v-16c0-1.379 1.121-2.5 2.5-2.5h11c1.379 0 2.5 1.121 2.5 2.5v5c0 .276-.224.5-.5.5s-.5-.224-.5-.5v-5c0-.827-.673-1.5-1.5-1.5h-11c-.827 0-1.5.673-1.5 1.5v16c0 .827.673 1.5 1.5 1.5h8c.276 0 .5.224.5.5s-.224.5-.5.5z"/><path d="m8 15c-2.757 0-5-2.243-5-5s2.243-5 5-5c2.351 0 4.356 1.6 4.876 3.89.062.269-.107.537-.377.598-.274.063-.536-.108-.598-.377-.416-1.832-2.02-3.111-3.901-3.111-2.206 0-4 1.794-4 4s1.794 4 4 4c.624 0 1.223-.14 1.779-.416.245-.121.546-.022.67.227.122.247.021.547-.227.67-.695.344-1.443.519-2.222.519z"/><path d="m4.818 13.682c-.128 0-.256-.049-.354-.146-.195-.195-.195-.512 0-.707l3.036-3.036v-4.293c0-.276.224-.5.5-.5s.5.224.5.5v4.5c0 .133-.053.26-.146.354l-3.182 3.182c-.098.097-.226.146-.354.146z"/></svg>