<svg id="Capa_1" enable-background="new 0 0 512 512" height="512" viewBox="0 0 512 512" width="512" xmlns="http://www.w3.org/2000/svg"><g><path d="m316 76c0-33.084-26.916-60-60-60s-60 26.916-60 60 26.916 60 60 60 60-26.916 60-60zm-60 40c-22.056 0-40-17.944-40-40s17.944-40 40-40 40 17.944 40 40-17.944 40-40 40z"/><path d="m346 266v-40c0-49.626-40.374-90-90-90s-90 40.374-90 90v40c0 5.523 4.478 10 10 10h160c5.522 0 10-4.477 10-10zm-20-10h-140v-30c0-38.598 31.402-70 70-70s70 31.402 70 70z"/><path d="m71.858 408.114 48.142 24.067v53.819c0 5.523 4.478 10 10 10h106c5.522 0 10-4.477 10-10v-127.22c0-31.783-23.452-59.203-53.391-62.423-.795-.15-38.649-2.971-56.948-21.258l-27.38-27.379c-7.556-7.558-17.6-11.72-28.281-11.72v-80c0-22.056-17.944-40-40-40s-40 17.944-40 40v135.84c0 49.212 27.798 94.239 71.858 116.274zm-51.858-252.114c0-11.028 8.972-20 20-20s20 8.972 20 20v85.361c-12.196 7.052-20 20.2-20 34.639 0 10.68 4.162 20.723 11.719 28.28l51.21 51.22c3.903 3.905 10.236 3.907 14.142.001 3.905-3.905 3.906-10.236.001-14.142l-51.21-51.221c-3.78-3.779-5.862-8.8-5.862-14.138 0-8.464 5.357-16.044 13.332-18.861.003-.001.006-.003.009-.004h.001c6.88-2.439 15.066-1.005 20.797 4.726l27.383 27.383c18.65 18.637 45.831 23.879 68.836 26.986.037.004.075.009.113.013 19.923 2.142 35.529 20.827 35.529 42.537v117.22h-86v-50c0-3.788-2.141-7.251-5.528-8.944l-53.669-26.83c-37.504-18.757-60.803-56.456-60.803-98.386z"/><circle cx="459" cy="384" r="10"/><path d="m472 116c-22.056 0-40 17.944-40 40v80c-10.681 0-20.725 4.162-28.281 11.719l-27.377 27.377c-15.96 15.949-41.848 18.608-56.951 21.262-29.939 3.22-53.391 30.639-53.391 62.422v127.22c0 5.523 4.478 10 10 10h106c5.522 0 10-4.477 10-10v-53.819l32.73-16.362c4.939-2.47 6.942-8.476 4.473-13.417-2.469-4.939-8.474-6.942-13.416-4.473l-38.259 19.125c-3.387 1.695-5.528 5.158-5.528 8.946v50h-86v-117.22c0-21.71 15.606-40.395 35.529-42.538.038-.004.076-.008.113-.013 23.361-3.155 50.206-8.368 68.839-26.988l27.38-27.38c5.724-5.724 13.913-7.166 20.797-4.726h.001c.003.001.006.003.009.004 7.975 2.817 13.332 10.397 13.332 18.861 0 5.338-2.082 10.359-5.861 14.14l-51.21 51.22c-3.905 3.906-3.904 10.237.001 14.142 3.904 3.904 10.237 3.905 14.142-.001l51.21-51.22c7.556-7.558 11.718-17.601 11.718-28.281 0-14.439-7.804-27.587-20-34.639v-85.361c0-11.028 8.972-20 20-20s20 8.972 20 20v135.84c0 18.296-4.617 36.46-13.353 52.528-2.639 4.852-.844 10.924 4.009 13.562 4.851 2.637 10.924.843 13.562-4.009 10.325-18.99 15.782-40.458 15.782-62.081v-135.84c0-22.056-17.944-40-40-40z"/></g></svg>