<svg id="Layer_1_1_" enable-background="new 0 0 64 64" height="512" viewBox="0 0 64 64" width="512" xmlns="http://www.w3.org/2000/svg"><path d="m59 22c-.77112 0-1.46802.30054-2 .78027-.53198-.47973-1.22888-.78027-2-.78027s-1.46802.30054-2 .78027c-.53198-.47973-1.22888-.78027-2-.78027-.35236 0-.68567.0722-1 .18427v-7.18427c0-1.6543-1.3457-3-3-3s-3 1.3457-3 3v12.64844l-3.78125 4.72656c-.1416.17773-.21875.39746-.21875.625v6c0 .26562.10547.51953.29297.70703l2.70703 2.70703v3.58594c0 .55273.44727 1 1 1h15c.55273 0 1-.44727 1-1v-3.58594l1.70703-1.70703c.1875-.1875.29297-.44141.29297-.70703v-15c0-1.6543-1.3457-3-3-3zm-1 23h-13v-2h13zm2-5.41406-1.41406 1.41406h-14.17188l-2.41406-2.41406v-5.23535l2-2.49951v3.14892h2v-19c0-.55176.44824-1 1-1s1 .44824 1 1v10 5h2v-5c0-.55176.44824-1 1-1s1 .44824 1 1v5h2v-5c0-.55176.44824-1 1-1s1 .44824 1 1v5h2v-5c0-.55176.44824-1 1-1s1 .44824 1 1z"/><path d="m17.19141 41.58789c.21973.30371.58789.45801.96191.40039.37012-.05762.67676-.31641.79492-.67188l7.2373-21.70996 3.91992 7.84082c.15918.31836.47656.52832.83203.55078.37402.01367.69629-.14746.89453-.44336l14.16798-21.25195v3.69727h2v-7c0-.31348-.14746-.60938-.39746-.79883-.25-.18848-.57715-.24805-.87695-.16309l-7 2 .54883 1.92383 4.38422-1.2525-13.53462 20.30231-4.22949-8.45898c-.18066-.3623-.5498-.58496-.96582-.5498-.40332.02832-.74902.29688-.87695.68066l-7.38574 22.15625-6.85742-9.42773c-.22461-.30957-.60156-.46582-.9834-.39648-.37598.06641-.68164.3418-.78711.70996l-6 21 1.92383.54883 5.43555-19.02734z"/><path d="m51 36.58594-1.29297-1.29297-1.41406 1.41406 2 2c.19531.19531.45117.29297.70703.29297s.51172-.09766.70703-.29297l5-5-1.41406-1.41406z"/><path d="m42 50c0-.55273-.44727-1-1-1h-3v-5c0-.55273-.44727-1-1-1h-3v-8c0-.55273-.44727-1-1-1h-4c-.55273 0-1 .44727-1 1v10h-2v-1c0-.55273-.44727-1-1-1h-4c-.55273 0-1 .44727-1 1v7h-2v-2c0-.55273-.44727-1-1-1h-4c-.55273 0-1 .44727-1 1v5h-3c-.55273 0-1 .44727-1 1v5h-2v2h3 4 4 4 4 4 4 4 4 3v-2h-2zm-32 6h2v4h-2zm4-1v-5h2v2 8h-2zm4-2h2v7h-2zm4-1v-7h2v1 14h-2zm4-5h2v13h-2zm4-1v-10h2v8 16h-2zm4-1h2v5 10h-2zm4 15v-9h2v9z"/></svg>