<svg id="Capa_1" enable-background="new 0 0 511.932 511.932" height="512" viewBox="0 0 511.932 511.932" width="512" xmlns="http://www.w3.org/2000/svg">
<defs>
    <linearGradient id="Gradient3">
        <stop stop-color="#7900f3" offset="0" />
        <stop stop-color="#9200f6" offset="30%" />
        <stop stop-color="#a900f9" offset="50%" />
        <stop stop-color="#bf00fc" offset="80%" />
        <stop stop-color="#d300ff" offset="100%" />
    </linearGradient>
</defs>
<g><path d="m496.932 256.467c-8.62 0-428.503 0-441 0-8.284 0-15 6.716-15 15v56c0 60.465 27.53 116.739 72.969 154h-54.969c-11.749 0-23.851-5.489-33.202-15.062-5.79-5.928-15.286-6.036-21.212-.247s-6.036 15.286-.247 21.212c14.961 15.313 34.884 24.097 54.661 24.097h360.613c20.096 0 40.225-8.996 55.227-24.683 5.726-5.986 5.514-15.481-.473-21.207-5.987-5.729-15.483-5.516-21.208.473-9.371 9.798-21.598 15.417-33.546 15.417h-53.583c29.113-23.874 50.872-55.551 62.75-91.137 45.882-2.455 83.219-40.346 83.219-86.863v-32c.001-8.285-6.715-15-14.999-15zm-185.137 224h-143.727c-59.115-27.8-97.136-87.508-97.136-153v-41h338v41c0 65.492-38.022 125.2-97.137 153zm170.137-177c0 27.228-19.531 50.044-45.545 55.662 3.192-19.761 2.545-29.042 2.545-72.662h43z"/><path d="m227.451 103.146c-6.706 10.058.678 23.322 12.467 23.322 4.847 0 9.604-2.346 12.494-6.682 13.09-19.634 13.09-45.007 0-64.641-6.35-9.525-6.35-21.834 0-31.359 4.596-6.893 2.733-16.206-4.16-20.801s-16.206-2.734-20.801 4.16c-13.09 19.634-13.09 45.007 0 64.641 6.35 9.526 6.35 21.835 0 31.36z"/><path d="m323.451 191.146c-6.706 10.057.678 23.322 12.467 23.322 4.847 0 9.604-2.346 12.494-6.682 13.09-19.634 13.09-45.007 0-64.641-6.35-9.525-6.35-21.834 0-31.359 4.596-6.893 2.733-16.206-4.16-20.801-6.893-4.596-16.206-2.733-20.801 4.16-13.09 19.634-13.09 45.007 0 64.641 6.35 9.526 6.35 21.835 0 31.36z"/><path d="m131.451 191.146c-6.706 10.057.678 23.322 12.467 23.322 4.847 0 9.604-2.346 12.494-6.682 13.09-19.634 13.09-45.007 0-64.641-6.35-9.525-6.35-21.834 0-31.359 4.596-6.893 2.733-16.206-4.16-20.801-6.893-4.596-16.206-2.733-20.801 4.16-13.09 19.634-13.09 45.007 0 64.641 6.35 9.526 6.35 21.835 0 31.36z"/></g></svg>