<?xml version="1.0" encoding="iso-8859-1"?>
<!-- Generator: Adobe Illustrator 19.0.0, SVG Export Plug-In . SVG Version: 6.00 Build 0)  -->
<svg version="1.1" id="Capa_1" xmlns="http://www.w3.org/2000/svg" xmlns:xlink="http://www.w3.org/1999/xlink" x="0px" y="0px"
	 viewBox="0 0 512.001 512.001" style="enable-background:new 0 0 512.001 512.001;" xml:space="preserve">
<g>
	<g>
		<path d="M330.286,52.989c-1.753-5.477-6.484-9.469-12.178-10.277l-33.71-4.783L269.387,8.234C266.835,3.184,261.658,0,256.001,0
			c-5.657,0-10.834,3.184-13.387,8.233l-15.01,29.695l-33.71,4.783c-5.694,0.808-10.425,4.8-12.179,10.277
			c-1.754,5.477-0.221,11.475,3.945,15.44l24.176,23.009l-5.691,32.397c-0.985,5.608,1.29,11.291,5.874,14.669
			c4.584,3.379,10.685,3.871,15.75,1.271l30.232-15.518l30.232,15.518c5.064,2.6,11.166,2.108,15.75-1.27
			c4.583-3.379,6.858-9.061,5.873-14.669l-5.69-32.397l24.176-23.009C330.508,64.464,332.04,58.467,330.286,52.989z M275.659,75.248
			c-3.638,3.462-5.302,8.515-4.433,13.461l1.861,10.596L262.85,94.05c-4.301-2.208-9.401-2.207-13.7,0l-10.238,5.255l1.861-10.596
			c0.869-4.946-0.795-9.999-4.433-13.461l-7.552-7.187l10.778-1.529c4.855-0.689,9.068-3.708,11.28-8.084L256,48.251l5.154,10.197
			c2.212,4.377,6.424,7.396,11.28,8.084l10.777,1.529L275.659,75.248z"/>
	</g>
</g>
<g>
	<g>
		<path d="M511.286,143.988c-1.753-5.477-6.484-9.469-12.178-10.277l-33.71-4.783l-15.011-29.695C447.835,94.183,442.658,91,437,91
			c-5.658,0-10.835,3.184-13.387,8.233l-15.011,29.695l-33.71,4.783c-5.693,0.808-10.425,4.8-12.178,10.277
			c-1.754,5.477-0.222,11.475,3.944,15.44l24.176,23.009l-5.69,32.397c-0.985,5.608,1.29,11.291,5.873,14.669
			c4.584,3.379,10.684,3.87,15.75,1.271l30.232-15.518l30.232,15.518c5.064,2.6,11.166,2.108,15.75-1.27
			c4.583-3.379,6.858-9.061,5.873-14.669l-5.69-32.397l24.176-23.009C511.507,155.463,513.04,149.466,511.286,143.988z
			 M456.66,166.248c-3.638,3.462-5.302,8.515-4.433,13.461l1.861,10.596l-10.238-5.255c-4.299-2.207-9.4-2.207-13.699,0
			l-10.238,5.255l1.861-10.596c0.869-4.946-0.795-9.999-4.433-13.461l-7.552-7.187l10.777-1.529
			c4.855-0.689,9.067-3.708,11.279-8.084l5.154-10.197l5.154,10.197c2.212,4.377,6.424,7.396,11.279,8.084l10.777,1.529
			L456.66,166.248z"/>
	</g>
</g>
<g>
	<g>
		<path d="M149.287,143.988c-1.753-5.477-6.484-9.469-12.179-10.277l-33.71-4.783l-15.01-29.695C85.835,94.184,80.658,91,75.001,91
			c-5.657,0-10.834,3.184-13.387,8.233l-15.01,29.695l-33.71,4.783c-5.694,0.808-10.425,4.8-12.179,10.277
			c-1.754,5.477-0.221,11.475,3.945,15.44l24.176,23.009l-5.691,32.397c-0.985,5.608,1.29,11.291,5.874,14.669
			c4.584,3.379,10.686,3.871,15.75,1.271l30.232-15.518l30.232,15.518c5.064,2.6,11.167,2.108,15.75-1.271
			c4.583-3.379,6.858-9.061,5.874-14.669l-5.691-32.397l24.176-23.009C149.508,155.463,151.041,149.466,149.287,143.988z
			 M94.66,166.248c-3.638,3.462-5.302,8.515-4.433,13.461l1.861,10.596l-10.237-5.255c-4.3-2.207-9.399-2.208-13.7,0l-10.238,5.255
			l1.861-10.596c0.869-4.946-0.795-9.999-4.433-13.461l-7.552-7.187l10.777-1.529c4.855-0.689,9.068-3.708,11.28-8.084L75,139.251
			l5.154,10.197c2.212,4.377,6.424,7.396,11.28,8.084l10.777,1.529L94.66,166.248z"/>
	</g>
</g>
<g>
	<g>
		<path d="M310.557,327.528c21.528-16.46,35.444-42.397,35.444-71.528c0-49.626-40.374-90-90-90s-90,40.374-90,90
			c0,29.13,13.916,55.068,35.444,71.528c-47.339,20.998-80.444,68.439-80.444,123.472v46c0,8.284,6.716,15,15,15h240
			c8.284,0,15-6.716,15-15v-46C391.001,395.967,357.895,348.526,310.557,327.528z M196.001,256c0-33.084,26.916-60,60-60
			c33.084,0,60,26.916,60,60s-26.916,60-60,60C222.917,316,196.001,289.085,196.001,256z M361.001,482h-210v-31
			c0-57.897,47.103-105,105-105s105,47.103,105,105V482z"/>
	</g>
</g>
<g>
</g>
<g>
</g>
<g>
</g>
<g>
</g>
<g>
</g>
<g>
</g>
<g>
</g>
<g>
</g>
<g>
</g>
<g>
</g>
<g>
</g>
<g>
</g>
<g>
</g>
<g>
</g>
<g>
</g>
</svg>
