<svg height="512pt" viewBox="0 0 511 512" width="512pt" xmlns="http://www.w3.org/2000/svg"><path d="m504.984375 245.03125h-22.5v-67.496094c0-4.144531-3.355469-7.5-7.5-7.5h-44.996094c-4.144531 0-7.5 3.355469-7.5 7.5v67.496094h-15v-67.496094c0-4.144531-3.359375-7.5-7.5-7.5h-45c-4.140625 0-7.5 3.355469-7.5 7.5v67.496094h-23.464843v-52.5c0-12.5625-8.472657-23.175781-20-26.449219v-16.085937h4.96875c16.539062 0 29.996093-13.457032 29.996093-30 0-8.507813-3.632812-16.648438-9.894531-22.265625l-20.101562-18.519531v-6.714844c0-23.476563-15.496094-43.402344-36.796876-50.09375l3.742188-3.742188c2.929688-2.929687 2.929688-7.675781 0-10.605468-2.929688-2.929688-7.679688-2.929688-10.605469 0l-1.339843 1.339843v-1.894531c0-4.144531-3.359376-7.5-7.5-7.5-4.140626 0-7.5 3.355469-7.5 7.5v1.894531l-1.339844-1.339843c-2.929688-2.929688-7.675782-2.929688-10.605469 0-2.929687 2.929687-2.929687 7.679687 0 10.605468l3.742187 3.742188c-21.300781 6.691406-36.796874 26.617187-36.796874 50.09375v6.714844l-20.027344 18.453124c-6.335938 5.683594-9.96875 13.824219-9.96875 22.332032 0 16.542968 13.457031 30 29.996094 30h5.035156v16.097656c-9.011719 2.5625-16.164063 9.597656-18.847656 18.558594-25.964844-3.144532-46.148438-25.320313-46.148438-52.117188 0-12.40625-10.09375-22.5-22.5-22.5s-22.5 10.09375-22.5 22.5c0 51.234375 39.730469 93.367188 89.996094 97.210938v15.285156h-98.53125v-69.964844c0-13.96875-9.574219-25.738281-22.5-29.082031v-28.28125c0-4.144531-3.355469-7.5-7.496094-7.5-4.144531 0-7.5 3.355469-7.5 7.5v28.28125c-12.925781 3.34375-22.5 15.113281-22.5 29.082031v69.964844h-22.5c-4.140625 0-7.5 3.355469-7.5 7.5v54.976562c0 9.773438 6.269531 18.113282 15 21.207032v175.785156c0 4.144531 3.359375 7.5 7.5 7.5h466.984375c4.140625 0 7.5-3.355469 7.5-7.5v-175.785156c8.730469-3.09375 15-11.433594 15-21.207032v-54.976562c0-4.144531-3.359375-7.5-7.5-7.5zm-37.5-59.996094v14.996094h-29.996094v-14.996094zm-29.996094 29.996094h29.996094v30h-29.996094zm-45-29.996094v14.996094h-30v-14.996094zm-30 29.996094h30v30h-30zm-53.464843-22.5v52.5h-45.03125v-64.996094h32.53125c6.894531 0 12.5 5.605469 12.5 12.496094zm-20-27.496094h-25.03125v-15.039062h25.03125zm-70.03125-67.539062v-7.5h75v7.5c0 20.679687-16.824219 37.5-37.5 37.5-20.675782 0-37.5-16.820313-37.5-37.5zm104.996093 22.5c0 8.269531-6.726562 15-14.996093 15h-15.808594c9.285156-9.089844 15.214844-21.582032 15.753906-35.441406l10.066406 9.273437c3.167969 2.84375 4.984375 6.914063 4.984375 11.167969zm-67.496093-84.996094c20.675781 0 37.5 16.820312 37.5 37.496094v2.5h-75v-2.5c0-20.675782 16.824218-37.496094 37.5-37.496094zm-67.5 84.996094c0-4.253906 1.820312-8.324219 5.0625-11.234375l9.992187-9.203125c.539063 13.855468 6.46875 26.351562 15.753906 35.4375h-15.804687c-8.273438 0-15.003906-6.730469-15.003906-15zm60 30v15.039062h-24.964844v-15.039062zm-52.464844 65.035156c-45.488282 0-82.496094-37.007812-82.496094-82.496094 0-4.136718 3.363281-7.5 7.5-7.5s7.5 3.363282 7.5 7.5c0 37.21875 30.277344 67.496094 67.496094 67.496094 1.988281 0 3.898437-.789062 5.304687-2.195312s2.195313-3.3125 2.195313-5.304688c0-6.890625 5.605468-12.496094 12.5-12.496094h32.464844v64.996094h-44.964844v-22.5c0-4.140625-3.359375-7.5-7.5-7.5zm-151.027344-39.964844c0-7.882812 6.085938-14.351562 13.792969-14.972656.394531.066406.792969.105469 1.207031.105469.410156 0 .8125-.039063 1.203125-.105469 7.707031.621094 13.792969 7.089844 13.792969 14.972656v69.964844h-29.996094zm226.992188 321.933594h-75v-129.496094c0-4.136718 3.367187-7.5 7.5-7.5h60c4.136718 0 7.5 3.363282 7.5 7.5zm119.996093 0h-75v-129.496094c0-4.136718 3.367188-7.5 7.5-7.5h60c4.136719 0 7.5 3.363282 7.5 7.5zm15 0v-129.496094c0-12.40625-10.09375-22.5-22.5-22.5h-60c-12.40625 0-22.496093 10.09375-22.496093 22.5v129.496094h-15v-129.496094c0-12.40625-10.09375-22.5-22.5-22.5h-60c-12.40625 0-22.496094 10.09375-22.496094 22.5v129.496094h-151.996094v-166.996094h15v22.5c0 12.40625 10.089844 22.5 22.496094 22.5 12.410156 0 22.5-10.09375 22.5-22.5v-22.5h15v67.5c0 12.40625 10.09375 22.5 22.5 22.5s22.5-10.09375 22.5-22.5v-67.5h271.992187v22.5c0 12.40625 10.089844 22.5 22.496094 22.5 12.410156 0 22.5-10.09375 22.5-22.5v-22.5h15v166.996094zm89.996094-189.492188c0 4.132813-3.363281 7.5-7.5 7.5h-30c-4.140625 0-7.5 3.355469-7.5 7.5v29.996094c0 4.136719-3.363281 7.5-7.5 7.5-4.132813 0-7.496094-3.363281-7.496094-7.5v-29.996094c0-4.144531-3.359375-7.5-7.5-7.5h-286.992187c-4.140625 0-7.5 3.355469-7.5 7.5v74.996094c0 4.136719-3.363282 7.5-7.5 7.5-4.136719 0-7.5-3.363281-7.5-7.5v-74.996094c0-4.144531-3.359375-7.5-7.5-7.5h-30c-4.140625 0-7.5 3.355469-7.5 7.5v29.996094c0 4.136719-3.363282 7.5-7.5 7.5-4.132813 0-7.496094-3.363281-7.496094-7.5v-29.996094c0-4.144531-3.359375-7.5-7.5-7.5h-30c-4.136719 0-7.5-3.367187-7.5-7.5v-47.476562h481.984375zm0 0"/></svg>