<?xml version="1.0" encoding="UTF-8"?>
<svg xmlns="http://www.w3.org/2000/svg" viewBox="0 0 64 64" width="512" height="512"><g id="Work_form_home-Lifestyle-Computer-Job-Man" data-name="Work form home-Lifestyle-Computer-Job-Man"><path d="M55,48H49a1,1,0,0,0-1,1v5a1,1,0,0,0,.684.948l3,1a.986.986,0,0,0,.632,0l3-1A1,1,0,0,0,56,54V49A1,1,0,0,0,55,48Zm-1,5.279-2,.667-2-.667V50h4Z"/><circle cx="40" cy="19" r="2"/><circle cx="48" cy="19" r="2"/><path d="M20,11H6a4,4,0,0,0-4,4V25a4,4,0,0,0,3,3.87V32a1,1,0,0,0,.69.95A1.115,1.115,0,0,0,6,33a1.028,1.028,0,0,0,.81-.41L9.45,29H20a4,4,0,0,0,4-4V15A4,4,0,0,0,20,11Zm2,14a2.006,2.006,0,0,1-2,2H8.94a.981.981,0,0,0-.8.41L7,28.95V28a1,1,0,0,0-1-1,2.006,2.006,0,0,1-2-2V15a2.006,2.006,0,0,1,2-2H20a2.006,2.006,0,0,1,2,2Z"/><path d="M7,17H19a1,1,0,0,0,0-2H7a1,1,0,0,0,0,2Z"/><path d="M7,25H19a1,1,0,0,0,0-2H7a1,1,0,0,0,0,2Z"/><path d="M7,21H9a1,1,0,0,0,0-2H7a1,1,0,0,0,0,2Z"/><path d="M19,19H13a1,1,0,0,0,0,2h6a1,1,0,0,0,0-2Z"/><path d="M10,39H8a1,1,0,0,0,0,2h2a1,1,0,0,0,0-2Z"/><path d="M16,39H14a1,1,0,0,0,0,2h2a1,1,0,0,0,0-2Z"/><path d="M23,40a1,1,0,0,0-1-1H20a1,1,0,0,0,0,2h2A1,1,0,0,0,23,40Z"/><path d="M26,41h2a1,1,0,0,0,0-2H26a1,1,0,0,0,0,2Z"/><path d="M56.06,35.23,49,34.14V30.65a9.97,9.97,0,0,0,4.96-7.81A2.993,2.993,0,0,0,56,20V18a3.011,3.011,0,0,0-1.21-2.41A1.006,1.006,0,0,0,55,15V11a9.014,9.014,0,0,0-9-9H42a9.014,9.014,0,0,0-9,9v4a.952.952,0,0,0,.22.59A2.992,2.992,0,0,0,32,18v2a2.993,2.993,0,0,0,2.04,2.84A9.97,9.97,0,0,0,39,30.65v3.49l-6.92,1.07A2.967,2.967,0,0,0,31,35H5a3.009,3.009,0,0,0-3,3V54a3.009,3.009,0,0,0,3,3h7.78l-.76,3.8a.99.99,0,0,0,.21.83A.971.971,0,0,0,13,62H23a1,1,0,0,0,0-2H20.22l.6-3H26v1a.985.985,0,0,0,.78.97l13.06,3a.78.78,0,0,0,.22.03h7.91a.833.833,0,0,0,.22-.03l13.03-3A.985.985,0,0,0,62,58V42.15A6.967,6.967,0,0,0,56.06,35.23ZM35,11a7.008,7.008,0,0,1,7-7h4a7.008,7.008,0,0,1,7,7v3H49.64a6.926,6.926,0,0,1-2.76-.57l-5.49-2.35A1.046,1.046,0,0,0,41,11a1.007,1.007,0,0,0-.71.29l-.65.66A6.923,6.923,0,0,1,35,13.99Zm1,11a1,1,0,0,0-1-1,1,1,0,0,1-1-1V18a1,1,0,0,1,1-1,1,1,0,0,0,1-1v-.11a8.878,8.878,0,0,0,5.05-2.53l.18-.17,4.87,2.08a8.974,8.974,0,0,0,3.54.73H52a1,1,0,0,0,1,1,1,1,0,0,1,1,1v2a1,1,0,0,1-1,1,1,1,0,0,0-1,1,8,8,0,0,1-16,0ZM47.85,35.99l.15.02V38a4.009,4.009,0,0,1-6.83,2.84A4.045,4.045,0,0,1,40,38V36.01l.15-.02A1.008,1.008,0,0,0,41,35V31.53a9.809,9.809,0,0,0,6,0V35A1.008,1.008,0,0,0,47.85,35.99ZM18.18,60H14.22l1.6-8h3.96Zm3.04-5,.76-3.8a.99.99,0,0,0-.21-.83A.971.971,0,0,0,21,50H15a1,1,0,0,0-.98.8L13.18,55H5a1,1,0,0,1-1-1V38a1,1,0,0,1,1-1H31a1,1,0,0,1,1,1V54a1,1,0,0,1-1,1ZM60,57.2,47.86,60H40.17L28,57.2V57h3a3.009,3.009,0,0,0,3-3V38a2.942,2.942,0,0,0-.19-1.03L38,36.32V38a6,6,0,0,0,12,0V36.32l5.76.89A4.967,4.967,0,0,1,60,42.15Z"/></g></svg>
