<svg id="Layer_5" enable-background="new 0 0 64 64" height="512" viewBox="0 0 64 64" width="512" xmlns="http://www.w3.org/2000/svg"><g><path d="m43.525 13.474 1.76-.952c-2.512-4.64-7.346-7.522-12.618-7.522h-.667v2h.667c4.537 0 8.698 2.48 10.858 6.474z"/><path d="m30.16 7.056-.193-1.99c-.726.07-1.45.197-2.154.377l.496 1.938c.604-.155 1.227-.264 1.851-.325z"/><path d="m61.683 15.622-8.683-5.426v4.804h-2.534c-1.978-8.157-9.323-14-17.799-14h-1.334c-6.873 0-13.203 3.908-16.321 10h-4.012v-4.804l-8.683 5.426c-.825.516-1.317 1.405-1.317 2.378s.492 1.862 1.317 2.378l8.683 5.426v-4.804h2.166c-.098.773-.166 1.552-.166 2.333 0 3.919 1.271 7.712 3.553 10.83l-1.326 1.326 1.231 2.461c-.819 1.403-1.44 2.899-1.852 4.46l-2.606.869v7.441l2.606.869c.411 1.561 1.032 3.057 1.852 4.46l-1.231 2.461 5.263 5.262 2.461-1.23c1.403.819 2.899 1.44 4.46 1.851l.868 2.607h7.441l.869-2.606c1.561-.411 3.057-1.032 4.46-1.851l2.461 1.23 5.263-5.262-1.231-2.461c.819-1.403 1.44-2.899 1.852-4.46l2.606-.869v-7.441l-2.606-.869c-.411-1.561-1.032-3.057-1.852-4.46l1.231-2.461-1.324-1.324c1.95-2.671 3.145-5.855 3.451-9.165h2.1v4.804l8.683-5.426c.825-.517 1.317-1.406 1.317-2.379s-.492-1.862-1.317-2.378zm-30.35-12.622h1.334c7.388 0 13.819 4.98 15.744 12h-12.411c-1.13 0-2.162.391-3 1.026v-.026c0-2.757-2.243-5-5-5h-10.706c2.921-4.903 8.264-8 14.039-8zm7.667 38c.552 0 1 .449 1 1s-.448 1-1 1h-14c-.552 0-1-.449-1-1s.448-1 1-1zm2.683-5.066c1.499 2.049 2.317 4.521 2.317 7.066 0 3.542-1.552 6.72-4 8.919v-3.103c1.161-.414 2-1.514 2-2.816 0-.771-.301-1.468-.78-2 .48-.532.78-1.229.78-2 0-1.279-.808-2.366-1.938-2.796.173-1.233.74-2.382 1.621-3.27zm-19.366 0c.881.888 1.448 2.037 1.621 3.27-1.13.43-1.938 1.517-1.938 2.796 0 .771.301 1.468.78 2-.48.532-.78 1.229-.78 2 0 1.302.839 2.402 2 2.816v3.103c-2.448-2.198-4-5.377-4-8.919 0-2.545.818-5.017 2.317-7.066zm17.683 10.066c0 .551-.448 1-1 1h-14c-.552 0-1-.449-1-1s.448-1 1-1h14c.552 0 1 .449 1 1zm-14 3h12v4.376c-1.767 1.026-3.813 1.624-6 1.624s-4.233-.598-6-1.624zm-17-34v3.196l-5.622-3.514c-.236-.148-.378-.403-.378-.682s.142-.534.378-.682l5.622-3.514v3.196h19c1.654 0 3 1.346 3 3v4 19h-2v-22c0-1.103-.897-2-2-2zm6.185 2h11.815v22h-1.072c-.237-1.817-1.105-3.513-2.474-4.758l-3.106-2.825c-3.4-3.087-5.348-7.493-5.348-12.084 0-.782.074-1.561.185-2.333zm31.155 14.884-1.084 2.168.298.476c.948 1.514 1.63 3.156 2.026 4.881l.126.547 2.294.765v4.559l-2.294.765-.126.547c-.396 1.725-1.078 3.367-2.026 4.881l-.298.476 1.084 2.168-3.224 3.223-2.167-1.083-.477.298c-1.514.949-3.156 1.63-4.881 2.026l-.548.125-.764 2.294h-4.559l-.765-2.294-.548-.125c-1.725-.396-3.367-1.078-4.881-2.026l-.477-.298-2.167 1.083-3.224-3.223 1.084-2.168-.298-.476c-.948-1.514-1.63-3.156-2.026-4.881l-.126-.547-2.292-.766v-4.559l2.294-.765.126-.547c.396-1.725 1.078-3.367 2.026-4.881l.298-.476-1.084-2.168.17-.17c.374.408.759.808 1.171 1.183l1.845 1.677c-1.837 2.428-2.846 5.38-2.846 8.427 0 7.72 6.28 14 14 14s14-6.28 14-14c0-3.047-1.009-5.999-2.846-8.425l1.845-1.677c.412-.374.8-.772 1.174-1.181zm-2.687-.466-3.106 2.824c-1.369 1.245-2.237 2.941-2.474 4.758h-1.073v-18h11.895c-.413 3.971-2.277 7.723-5.242 10.418zm16.969-12.736-5.622 3.514v-3.196h-18c-1.103 0-2 .897-2 2v18h-2v-19c0-1.654 1.346-3 3-3h19v-3.196l5.622 3.514c.236.148.378.403.378.682s-.142.534-.378.682z"/></g></svg>