<?xml version="1.0" encoding="iso-8859-1"?>
<!-- Generator: Adobe Illustrator 19.0.0, SVG Export Plug-In . SVG Version: 6.00 Build 0)  -->
<svg version="1.1" id="Capa_1" xmlns="http://www.w3.org/2000/svg" xmlns:xlink="http://www.w3.org/1999/xlink" x="0px" y="0px"
	 viewBox="0 0 496 496" style="enable-background:new 0 0 496 496;" xml:space="preserve">
<g>
	<g>
		<g>
			<path d="M80,192c0-5.936-1.384-11.528-3.72-16.6L221.208,69.488C228.312,75.952,237.664,80,248,80
				c7.368,0,14.184-2.144,20.12-5.632l50.472,47.744C314.448,128.408,312,135.92,312,144c0,22.056,17.944,40,40,40
				c22.056,0,40-17.944,40-40c0-8.08-2.448-15.592-6.592-21.888l50.472-47.744C441.816,77.856,448.632,80,456,80
				c22.056,0,40-17.944,40-40c0-22.056-17.944-40-40-40c-22.056,0-40,17.944-40,40c0,8.88,3.008,17.016,7.92,23.656l-49.768,47.08
				C367.808,106.496,360.192,104,352,104c-8.192,0-15.808,2.496-22.152,6.736l-49.768-47.08C284.992,57.016,288,48.88,288,40
				c0-22.056-17.944-40-40-40c-22.056,0-40,17.944-40,40c0,5.936,1.384,11.528,3.72,16.608L66.792,162.512
				C59.688,156.048,50.344,152,40,152c-22.056,0-40,17.944-40,40c0,22.056,17.944,40,40,40C62.056,232,80,214.056,80,192z M456,16
				c13.232,0,24,10.768,24,24s-10.768,24-24,24s-24-10.768-24-24S442.768,16,456,16z M352,120c13.232,0,24,10.768,24,24
				s-10.768,24-24,24s-24-10.768-24-24S338.768,120,352,120z M248,16c13.232,0,24,10.768,24,24s-10.768,24-24,24s-24-10.768-24-24
				S234.768,16,248,16z M40,216c-13.232,0-24-10.768-24-24s10.768-24,24-24s24,10.768,24,24S53.232,216,40,216z"/>
			<path d="M480,369.472V344c0-30.88-25.12-56-56-56s-56,25.12-56,56v25.472c-9.288,3.312-16,12.112-16,22.528v80
				c0,13.232,10.768,24,24,24h96c13.232,0,24-10.768,24-24v-80C496,381.584,489.288,372.784,480,369.472z M384,344
				c0-22.056,17.944-40,40-40c22.056,0,40,17.944,40,40v24h-80V344z M480,472c0,4.408-3.592,8-8,8h-96c-4.408,0-8-3.592-8-8v-80
				c0-4.408,3.592-8,8-8h96c4.408,0,8,3.592,8,8V472z"/>
			<path d="M424,400c-13.232,0-24,10.768-24,24c0,10.416,6.712,19.216,16,22.528V464h16v-17.472c9.288-3.312,16-12.112,16-22.528
				C448,410.768,437.232,400,424,400z M424,432c-4.408,0-8-3.592-8-8c0-4.408,3.592-8,8-8c4.408,0,8,3.592,8,8
				C432,428.408,428.408,432,424,432z"/>
			<path d="M370.192,196.704c20.416,21.632,34.752,48.288,41.448,77.096l15.584-3.624c-7.336-31.56-23.032-60.768-45.4-84.456
				L370.192,196.704z"/>
			<path d="M360,320v-16h-16.176c-1.064-33.544-8.656-61.984-19.096-85.56c9.704-3.696,18.048-7.688,24.728-11.48l-7.888-13.92
				c-6.392,3.624-14.416,7.472-23.864,10.976c-14.192-26.616-31.424-45.856-44.68-58.152c8.536,1.272,16.96,3.192,25.192,5.768
				l4.776-15.272C285.256,130.816,266.752,128,248,128c-101.456,0-184,82.544-184,184s82.544,184,184,184
				c32.672,0,64.776-8.672,92.816-25.088l-8.08-13.816c-18.352,10.744-38.624,17.784-59.624,20.952
				c13.24-12.296,30.424-31.512,44.584-58.064c5.048,1.88,10.016,3.912,14.816,6.232l6.96-14.408
				c-4.792-2.32-9.728-4.36-14.744-6.272c10.432-23.568,18.032-52.008,19.088-85.536H360z M222.72,146.112
				c-13.216,12.304-30.304,31.456-44.4,57.872c-18.608-6.92-31.376-15.208-38.352-20.456
				C163.08,164.064,191.512,150.856,222.72,146.112z M128.04,194.608c7.312,5.856,21.688,15.768,43.192,23.944
				c-10.416,23.552-17.992,51.96-19.056,85.456H80.4C82.424,261.528,100.12,223.128,128.04,194.608z M80.408,320h71.776
				c1.056,33.488,8.64,61.896,19.056,85.456c-21.504,8.176-35.88,18.088-43.192,23.944C100.12,400.872,82.424,362.472,80.408,320z
				 M139.96,440.472c6.984-5.256,19.752-13.536,38.352-20.456c14.104,26.416,31.192,45.568,44.4,57.872
				C191.504,473.144,163.072,459.936,139.96,440.472z M240,471.664c-11.968-10.344-30.512-29.12-45.808-56.664
				c13.152-3.576,28.432-6.128,45.808-6.752V471.664z M240,392.248c-20.392,0.672-38.128,3.768-53.192,8.088
				c-10.08-22.112-17.528-48.856-18.632-80.328H240V392.248z M240,304h-71.816c1.096-31.472,8.544-58.216,18.632-80.328
				c15.056,4.312,32.792,7.408,53.184,8.08V304z M240,215.76c-17.376-0.624-32.656-3.184-45.808-6.752
				c15.296-27.552,33.84-46.32,45.808-56.664V215.76z M256,152.344c11.976,10.352,30.536,29.144,45.832,56.72
				c-13.112,3.536-28.424,6.032-45.832,6.656V152.344z M256,471.656v-63.464c16.072,0.56,31.408,2.768,45.872,6.672
				C286.568,442.48,267.984,461.296,256,471.656z M309.2,400.312c-16.728-4.816-34.52-7.512-53.2-8.112V320h71.816
				C326.72,351.464,319.272,378.208,309.2,400.312z M256,304v-72.28c20.344-0.68,38.184-3.728,53.192-8.032
				c10.08,22.104,17.528,48.848,18.624,80.312H256z"/>
		</g>
	</g>
</g>
<g>
</g>
<g>
</g>
<g>
</g>
<g>
</g>
<g>
</g>
<g>
</g>
<g>
</g>
<g>
</g>
<g>
</g>
<g>
</g>
<g>
</g>
<g>
</g>
<g>
</g>
<g>
</g>
<g>
</g>
</svg>
