<?xml version="1.0" encoding="iso-8859-1"?>
<!-- Generator: Adobe Illustrator 19.0.0, SVG Export Plug-In . SVG Version: 6.00 Build 0)  -->
<svg version="1.1" id="Capa_1" xmlns="http://www.w3.org/2000/svg" xmlns:xlink="http://www.w3.org/1999/xlink" x="0px" y="0px"
	 viewBox="0 0 512 512" style="enable-background:new 0 0 512 512;" xml:space="preserve">
<g>
	<g>
		<path d="M403.182,57.265C360.395,25.573,309.619,8.828,256.344,8.828c-48.578,0-96.839,13.992-132.758,37.976V8.828
			c0-4.873-3.955-8.828-8.828-8.828c-4.873,0-8.828,3.955-8.828,8.828v55.534c0,3.416,1.977,6.532,5.076,7.989
			c3.099,1.448,6.762,0.989,9.393-1.201c33.668-27.966,84.489-44.668,135.945-44.668c49.461,0,96.6,15.554,136.324,44.977
			c1.58,1.165,3.425,1.73,5.252,1.73c2.701,0,5.367-1.236,7.097-3.575C407.923,65.695,407.102,60.169,403.182,57.265z"/>
	</g>
</g>
<g>
	<g>
		<path d="M512,114.767c0-4.873-3.955-8.828-8.828-8.828h-55.534c-3.416,0-6.532,1.977-7.989,5.076
			c-1.457,3.098-0.989,6.762,1.201,9.393c27.966,33.668,44.668,84.48,44.668,135.945c0,49.461-15.554,96.6-44.977,136.324
			c-2.904,3.919-2.083,9.445,1.836,12.35c1.58,1.165,3.425,1.73,5.252,1.73c2.701,0,5.367-1.236,7.106-3.566
			c31.691-42.787,48.437-93.564,48.437-146.838c0-48.578-13.983-96.839-37.976-132.758h37.976
			C508.045,123.595,512,119.64,512,114.767z"/>
	</g>
</g>
<g>
	<g>
		<path d="M400.993,439.658c-3.099-1.457-6.762-0.989-9.393,1.201c-33.66,27.966-84.48,44.668-135.936,44.668
			c-49.47,0-96.609-15.554-136.333-44.977c-3.919-2.913-9.445-2.083-12.35,1.836s-2.083,9.445,1.836,12.35
			c42.787,31.691,93.564,48.437,146.838,48.437c48.578,0,96.839-13.992,132.758-37.976v37.976c0,4.873,3.955,8.828,8.828,8.828
			c4.873,0,8.828-3.955,8.828-8.828v-55.526C406.069,444.231,404.092,441.114,400.993,439.658z"/>
	</g>
</g>
<g>
	<g>
		<path d="M71.142,391.601c-27.966-33.668-44.668-84.48-44.668-135.945c0-49.461,15.554-96.6,44.977-136.324
			c2.904-3.919,2.083-9.445-1.836-12.35c-3.919-2.904-9.445-2.083-12.35,1.836C25.574,151.605,8.828,202.381,8.828,255.656
			c0,48.578,13.992,96.839,37.976,132.758H8.828c-4.873,0-8.828,3.955-8.828,8.828s3.955,8.828,8.828,8.828h55.534
			c3.416,0,6.541-1.977,7.98-5.076C73.799,397.895,73.331,394.231,71.142,391.601z"/>
	</g>
</g>
<g>
	<g>
		<path d="M397.224,229.526h-17.046c-3.867,0-7.265-2.41-8.28-5.862c-3.213-10.946-6.409-19.253-9.755-25.388
			c-1.748-3.196-1.059-7.336,1.668-10.063l12.067-12.067c1.66-1.651,2.586-3.902,2.586-6.241c0-2.339-0.927-4.582-2.586-6.241
			l-27.551-27.551c-3.452-3.452-9.031-3.452-12.482,0l-12.067,12.058c-2.728,2.728-6.859,3.416-10.063,1.677
			c-6.118-3.337-14.424-6.532-25.388-9.763c-3.452-1.015-5.862-4.414-5.862-8.28v-17.046c0-4.873-3.955-8.828-8.828-8.828h-35.31
			c-4.873,0-8.828,3.955-8.828,8.828v17.028c0,3.858-2.41,7.265-5.862,8.28c-10.955,3.231-19.262,6.426-25.379,9.754
			c-3.204,1.748-7.336,1.059-10.063-1.668l-12.058-12.058c-3.452-3.452-9.031-3.452-12.482,0l-27.551,27.551
			c-1.66,1.651-2.586,3.902-2.586,6.241c0,2.339,0.927,4.582,2.586,6.241l12.067,12.067c2.719,2.728,3.407,6.868,1.668,10.063
			c-3.346,6.135-6.532,14.442-9.754,25.388c-1.015,3.452-4.414,5.862-8.28,5.862h-17.046c-4.873,0-8.828,3.955-8.828,8.828v35.31
			c0,4.873,3.955,8.828,8.828,8.828h17.055c3.858,0,7.265,2.41,8.28,5.862c3.222,10.937,6.409,19.244,9.754,25.388
			c1.739,3.204,1.059,7.336-1.668,10.063l-12.067,12.067c-1.66,1.651-2.586,3.902-2.586,6.241s0.927,4.582,2.586,6.241
			l27.551,27.551c3.452,3.452,9.031,3.452,12.482,0l12.067-12.058c2.728-2.728,6.868-3.407,10.055-1.677
			c6.118,3.337,14.424,6.532,25.388,9.763c3.452,1.015,5.862,4.414,5.862,8.28v17.046c0,4.873,3.955,8.828,8.828,8.828h35.31
			c4.873,0,8.828-3.955,8.81-8.828v-17.028c0-3.858,2.41-7.265,5.87-8.28c10.955-3.231,19.262-6.418,25.379-9.754
			c3.204-1.748,7.336-1.059,10.063,1.668l12.067,12.058c3.452,3.452,9.031,3.452,12.482,0l27.551-27.551
			c1.66-1.651,2.586-3.902,2.586-6.241s-0.927-4.582-2.586-6.241l-12.067-12.067c-2.728-2.728-3.407-6.868-1.668-10.063
			c3.346-6.135,6.541-14.442,9.755-25.388c1.015-3.452,4.414-5.862,8.28-5.862h17.046c4.873,0,8.828-3.955,8.828-8.828v-35.31
			C406.051,233.481,402.097,229.526,397.224,229.526z M388.423,264.819h-8.218c-11.635,0-22.007,7.618-25.22,18.529
			c-2.86,9.728-5.579,16.905-8.324,21.928c-5.455,10.028-3.531,22.766,4.696,30.994l5.817,5.826l-15.069,15.069l-5.817-5.817
			c-8.227-8.227-20.966-10.161-30.994-4.696c-5.014,2.728-12.191,5.455-21.928,8.324c-10.92,3.213-18.538,13.586-18.538,25.22v8.219
			H247.19v-8.21c0-11.635-7.627-22.007-18.529-25.212c-9.746-2.878-16.922-5.597-21.937-8.333
			c-10.019-5.464-22.758-3.531-30.985,4.696l-5.817,5.817l-15.069-15.069l5.826-5.826c8.218-8.227,10.152-20.966,4.687-30.994
			c-2.737-5.023-5.464-12.2-8.324-21.928c-3.213-10.911-13.586-18.529-25.22-18.529h-8.218v-17.655h8.218
			c11.635,0,22.016-7.618,25.22-18.529c2.86-9.728,5.579-16.896,8.324-21.928c5.455-10.019,3.522-22.766-4.696-30.985l-5.826-5.826
			l15.069-15.069l5.817,5.817c8.219,8.227,20.966,10.169,30.994,4.696c5.005-2.728,12.182-5.455,21.919-8.324
			c10.92-3.213,18.538-13.586,18.538-25.22v-8.219h17.655v8.201c0,11.635,7.618,22.007,18.529,25.212
			c9.737,2.878,16.914,5.597,21.928,8.333c10.019,5.464,22.766,3.531,30.985-4.696l5.826-5.817l15.069,15.069l-5.817,5.826
			c-8.227,8.218-10.161,20.966-4.696,30.994c2.745,5.023,5.464,12.2,8.324,21.928c3.213,10.911,13.586,18.529,25.22,18.529h8.219
			V264.819z"/>
	</g>
</g>
<g>
	<g>
		<path d="M256,185.379c-38.938,0-70.621,31.682-70.621,70.621s31.682,70.621,70.621,70.621s70.621-31.682,70.621-70.621
			S294.939,185.379,256,185.379z M256,308.966c-29.202,0-52.966-23.755-52.966-52.966c0-29.211,23.764-52.966,52.966-52.966
			S308.966,226.79,308.966,256S285.211,308.966,256,308.966z"/>
	</g>
</g>
<g>
</g>
<g>
</g>
<g>
</g>
<g>
</g>
<g>
</g>
<g>
</g>
<g>
</g>
<g>
</g>
<g>
</g>
<g>
</g>
<g>
</g>
<g>
</g>
<g>
</g>
<g>
</g>
<g>
</g>
</svg>
