<?xml version="1.0"?>
<svg xmlns="http://www.w3.org/2000/svg" width="512" height="512" viewBox="0 0 512 512"><g><path d="M334.58,299.45l-72-104a8,8,0,0,0-13.16,0l-72,104a7.99,7.99,0,0,0-1.01,7.08L196.9,368H192a8,8,0,0,0-8,8v24a8,8,0,0,0,8,8h8v88a8,8,0,0,0,8,8h96a8,8,0,0,0,8-8V408h8a8,8,0,0,0,8-8V376a8,8,0,0,0-8-8h-4.9l20.49-61.47A7.99,7.99,0,0,0,334.58,299.45ZM256,288a8,8,0,1,1-8,8A8.011,8.011,0,0,1,256,288Zm40,200H216V408h80Zm16-96H200v-8H312Zm-13.77-24H213.77l-20.92-62.73L248,225.61V272a8.451,8.451,0,0,0,.12,1.34,24,24,0,1,0,15.76,0A8.451,8.451,0,0,0,264,272V225.61l55.15,79.66Z"/><path d="M496,96H464a8,8,0,0,0-8,8v8.07a8.258,8.258,0,0,0-1-.07H280v-8a8,8,0,0,0-8-8h-8V56h8a8,8,0,0,0,8-8V16a8,8,0,0,0-8-8H240a8,8,0,0,0-8,8V48a8,8,0,0,0,8,8h8V96h-8a8,8,0,0,0-8,8v8H56v-8a8,8,0,0,0-8-8H16a8,8,0,0,0-8,8v32a8,8,0,0,0,8,8H48a8,8,0,0,0,8-8v-8H188.26a125.138,125.138,0,0,0-27.99,25.35C139.76,178.22,128,209.8,128,240h-8a8,8,0,0,0-8,8v32a8,8,0,0,0,8,8h32a8,8,0,0,0,8-8V248a8,8,0,0,0-8-8h-8c0-59.32,45.64-106.11,88-111.48V136a8,8,0,0,0,8,8h32a8,8,0,0,0,8-8v-7.51c21.66,2.57,42.45,15.55,59.23,37.2,16.33,21.05,26.7,48.31,28.49,74.31H360a8,8,0,0,0-8,8v32a8,8,0,0,0,8,8h32a8,8,0,0,0,8-8V248a8,8,0,0,0-8-8h-8.25c-1.75-29.71-13.14-59.97-31.87-84.12A126.392,126.392,0,0,0,322.48,128H455a8.258,8.258,0,0,0,1-.07V136a8,8,0,0,0,8,8h32a8,8,0,0,0,8-8V104A8,8,0,0,0,496,96ZM40,128H24V112H40ZM144,272H128V256h16ZM248,24h16V40H248Zm16,104H248V112h16ZM368,256h16v16H368ZM488,128H472V112h16Z"/></g></svg>
