<svg xmlns="http://www.w3.org/2000/svg" version="1.1" xmlns:xlink="http://www.w3.org/1999/xlink" xmlns:svgjs="http://svgjs.dev/svgjs" width="1000" height="179" viewBox="0 0 1000 179"><g transform="matrix(1,0,0,1,-0.6060606060606233,-0.3641402513708414)"><svg viewBox="0 0 396 71" data-background-color="#8d021f" preserveAspectRatio="xMidYMid meet" height="179" width="1000" xmlns="http://www.w3.org/2000/svg" xmlns:xlink="http://www.w3.org/1999/xlink"><g id="tight-bounds" transform="matrix(1,0,0,1,0.2400000000000091,0.14443551870016336)"><svg viewBox="0 0 395.52 70.71112896259966" height="70.71112896259966" width="395.52"><g><svg viewBox="0 0 502.7067552928934 89.87399424526147" height="70.71112896259966" width="395.52"><g><rect width="5.864637880607627" height="78.0382005023978" x="85.96966222744908" y="5.917896871431836" fill="#ffffff" opacity="1" stroke-width="0" stroke="transparent" fill-opacity="1" class="rect-r$-0" data-fill-palette-color="primary" rx="1%" id="r$-0" data-palette-color="#ffffff"></rect></g><g transform="matrix(1,0,0,1,107.18675529289342,12.421080246631654)"><svg viewBox="0 0 395.52 65.03183375199816" height="65.03183375199816" width="395.52"><g id="textblocktransform"><svg viewBox="0 0 395.52 65.03183375199816" height="65.03183375199816" width="395.52" id="textblock"><g><svg viewBox="0 0 395.52 65.03183375199816" height="65.03183375199816" width="395.52"><g transform="matrix(1,0,0,1,0,0)"><svg width="395.52" viewBox="0.5 -36 218.94 36" height="65.03183375199816" data-palette-color="#ffffff"><path d="M15.75 0L15.75 0Q13.35 0 12.6-0.35 11.85-0.7 11.55-1.55L11.55-1.55 0.5-32.05Q0.5-33 4.08-34.25 7.65-35.5 11.3-35.5L11.3-35.5Q16-35.5 16.3-32.55L16.3-32.55 18-16.7 18.7-16.7 20.1-32.55Q20.35-35.5 26.85-35.5L26.85-35.5Q29.35-35.5 30.2-34.83 31.05-34.15 31.15-33.05L31.15-33.05 32.8-16.7 33.5-16.7 34.8-32.55Q34.95-34 38.23-34.75 41.5-35.5 44.73-35.5 47.95-35.5 49.13-34.55 50.3-33.6 50.3-32.55L50.3-32.55 39.6-1.55Q39.05 0 32.2 0L32.2 0Q30.15 0 29.45-0.35 28.75-0.7 28.5-1.55L28.5-1.55 25.9-10.25 25.3-10.25 22.65-1.55Q22.2 0 15.75 0ZM78.15 0L78.15 0 56.95 0Q54.5 0 53.65-0.35 52.8-0.7 52.8-1.45L52.8-1.45 52.8-33.1Q52.8-34.4 53.97-34.95 55.15-35.5 58.2-35.5L58.2-35.5 78.3-35.5Q79.35-35.5 79.35-32.02 79.35-28.55 78.9-26.73 78.45-24.9 77.7-24.9L77.7-24.9Q74.45-24.9 66.75-25.55L66.75-25.55 66.75-22.2Q74.15-22.5 76.4-22.5L76.4-22.5Q77.75-22.5 77.75-19.35 77.75-16.2 77.22-14.58 76.7-12.95 75.8-12.95L75.8-12.95 66.75-13.15 66.75-9.95Q75.45-10.6 78.75-10.6L78.75-10.6Q79.8-10.6 79.8-7.1 79.8-3.6 79.35-1.8 78.9 0 78.15 0ZM98.45 0L98.45 0 87.5 0Q85 0 84.15-0.35 83.3-0.7 83.3-1.45L83.3-1.45 83.3-33.6Q83.3-36 97.75-36L97.75-36Q106.05-36 109.2-34.4L109.2-34.4Q112.4-32.75 113.3-30.2L113.3-30.2Q113.8-28.7 113.8-26.7L113.8-26.7Q113.8-22.8 112.47-20.85 111.15-18.9 109.6-18.65L109.6-18.65Q111.95-18.15 113.5-16.35 115.05-14.55 115.05-10.25L115.05-10.25Q115.05-5.25 112-2.85L112-2.85Q109.35-0.75 103.9-0.2L103.9-0.2Q101.6 0 98.45 0ZM97.25-21.8L98.5-21.8Q101.05-21.8 101.05-25.2L101.05-25.2Q101.05-26.9 100.37-27.73 99.7-28.55 98.85-28.55L98.85-28.55 97.25-28.55 97.25-21.8ZM97.25-14.2L97.25-7.45 98.5-7.45Q101.05-7.45 101.05-10.85L101.05-10.85Q101.05-12.55 100.37-13.38 99.7-14.2 98.85-14.2L98.85-14.2 97.25-14.2ZM134.49 0L134.49 0 122.69 0Q120.24 0 119.39-0.35 118.54-0.7 118.54-1.5L118.54-1.5 118.54-33.05Q118.54-34.35 119.64-34.93 120.74-35.5 123.44-35.5L123.44-35.5 134.69-35.5Q144.29-35.5 147.94-31.73 151.59-27.95 151.59-18 151.59-8.05 147.79-4.03 143.99 0 134.49 0ZM134.09-28.05L134.09-28.05Q132.89-28.05 132.49-27.85L132.49-27.85 132.49-7.65 134.39-7.45Q135.89-7.45 136.67-9.85 137.44-12.25 137.44-18.15 137.44-24.05 136.64-26.05 135.84-28.05 134.09-28.05ZM180.44 0L180.44 0 159.24 0Q156.79 0 155.94-0.35 155.09-0.7 155.09-1.45L155.09-1.45 155.09-33.1Q155.09-34.4 156.27-34.95 157.44-35.5 160.49-35.5L160.49-35.5 180.59-35.5Q181.64-35.5 181.64-32.02 181.64-28.55 181.19-26.73 180.74-24.9 179.99-24.9L179.99-24.9Q176.74-24.9 169.04-25.55L169.04-25.55 169.04-22.2Q176.44-22.5 178.69-22.5L178.69-22.5Q180.04-22.5 180.04-19.35 180.04-16.2 179.52-14.58 178.99-12.95 178.09-12.95L178.09-12.95 169.04-13.15 169.04-9.95Q177.74-10.6 181.04-10.6L181.04-10.6Q182.09-10.6 182.09-7.1 182.09-3.6 181.64-1.8 181.19 0 180.44 0ZM184.09-31.95L184.09-31.95Q184.09-32.55 185.39-33.38 186.69-34.2 189.06-34.85 191.44-35.5 194.24-35.5 197.04-35.5 198.34-34.7 199.64-33.9 199.74-32.95L199.74-32.95 201.49-14.75 202.19-14.75 203.74-32.5Q203.89-33.9 207.14-34.7 210.39-35.5 213.19-35.5 215.99-35.5 217.34-35.02 218.69-34.55 219.06-34.05 219.44-33.55 219.44-33.13 219.44-32.7 218.71-30.78 217.99-28.85 217.19-26.65L217.19-26.65Q214.54-19.65 208.24-1.55L208.24-1.55Q207.69 0 199.64 0L199.64 0Q197.14 0 196.34-0.35 195.54-0.7 195.24-1.55L195.24-1.55Q192.29-10.05 188.19-20.85 184.09-31.65 184.09-31.95Z" opacity="1" transform="matrix(1,0,0,1,0,0)" fill="#ffffff" class="wordmark-text-0" data-fill-palette-color="primary" id="text-0"></path></svg></g></svg></g></svg></g></svg></g><g><svg viewBox="0 0 70.61720704261236 89.87399424526147" height="89.87399424526147" width="70.61720704261236"><g><svg xmlns="http://www.w3.org/2000/svg" xmlns:xlink="http://www.w3.org/1999/xlink" version="1.1" x="0" y="0" viewBox="14.639999999999999 5 70.717 90.001" enable-background="new 0 0 100 100" xml:space="preserve" height="89.87399424526147" width="70.61720704261236" class="icon-icon-0" data-fill-palette-color="accent" id="icon-0"><g fill="#ffffff" data-fill-palette-color="accent"><path d="M85.357 53.214V50h-4.807H39.732 21.069c-3.551 0-6.429 2.878-6.429 6.429s2.878 6.428 6.429 6.428v0.001h59.481 4.807v-0.001-3.214h-5.563c-0.548-0.946-0.866-2.042-0.866-3.214 0-1.173 0.318-2.269 0.866-3.215H85.357zM77.994 59.643H39.732 26.632h-5.563v-6.429h5.563 13.101 38.262c-0.43 0.985-0.673 2.07-0.673 3.215C77.321 57.572 77.564 58.658 77.994 59.643z" fill="#ffffff" data-fill-palette-color="accent"></path></g><g fill="#ffffff" data-fill-palette-color="accent"><path d="M85.357 33.928v-3.214h-4.807H39.732 21.069c-3.551 0-6.429 2.878-6.429 6.429s2.878 6.429 6.429 6.429l0 0h59.481 4.807l0 0v-3.214h-5.563c-0.548-0.947-0.866-2.043-0.866-3.215s0.318-2.268 0.866-3.215H85.357zM77.994 40.357H39.732 26.632h-5.563v-6.43h5.563 13.101 38.262c-0.43 0.986-0.673 2.071-0.673 3.215S77.564 39.373 77.994 40.357z" fill="#ffffff" data-fill-palette-color="accent"></path></g><g fill="#ffffff" data-fill-palette-color="accent"><path d="M72.5 69.285v6.43 6.428c0 0-0.004 0-0.005 0H27.498v-6.428-6.43h-6.429v6.43 6.428l0 0v6.429c0 3.55 2.879 6.429 6.429 6.429h44.997c0.001 0 0.003 0 0.003 0 0.003 0 0.004 0 0.004 0 3.551-0.002 6.427-2.88 6.427-6.429v-6.429l0 0v-6.428-6.43H72.5zM53.213 88.571c0 1.775-1.439 3.214-3.214 3.214-1.775 0-3.214-1.438-3.214-3.214l0 0c0-1.775 1.438-3.215 3.214-3.215C51.773 85.356 53.213 86.796 53.213 88.571L53.213 88.571z" fill="#ffffff" data-fill-palette-color="accent"></path></g><g fill="#ffffff" data-fill-palette-color="accent"><path d="M72.5 5H27.498c-3.55 0-6.429 2.879-6.429 6.428v0.002 6.428 6.429h6.429v-6.429l0 0V11.43v-0.002h6.429 32.145H72.5v0.002 6.428l0 0v6.429h6.429v-6.429V11.43v-0.002C78.929 7.879 76.05 5 72.5 5z" fill="#ffffff" data-fill-palette-color="accent"></path></g></svg></g></svg></g></svg></g><defs></defs></svg><rect width="395.52" height="70.71112896259966" fill="none" stroke="none" visibility="hidden"></rect></g></svg></g></svg>