<svg id="visual" viewBox="0 0 1920 1024" width="1920" height="1024" xmlns="http://www.w3.org/2000/svg" xmlns:xlink="http://www.w3.org/1999/xlink" version="1.1"><rect x="0" y="0" width="1920" height="1024" fill="#FFFFFF"></rect><defs><linearGradient id="grad1_0" x1="46.7%" y1="100%" x2="100%" y2="0%"><stop offset="12.5%" stop-color="#ffffff" stop-opacity="1"></stop><stop offset="87.5%" stop-color="#ffffff" stop-opacity="1"></stop></linearGradient></defs><defs><linearGradient id="grad2_0" x1="0%" y1="100%" x2="53.3%" y2="0%"><stop offset="12.5%" stop-color="#ffffff" stop-opacity="1"></stop><stop offset="87.5%" stop-color="#ffffff" stop-opacity="1"></stop></linearGradient></defs><g transform="translate(1920, 1024)"><path d="M-614.4 0C-569.9 -90.4 -525.4 -180.9 -479.8 -277C-434.1 -373.1 -387.4 -474.9 -307.2 -532.1C-227 -589.3 -113.5 -601.8 0 -614.4L0 0Z" fill="#FAF1F2"></path></g><g transform="translate(0, 0)"><path d="M614.4 0C602 113.8 589.5 227.5 532.1 307.2C474.6 386.9 372.2 432.5 276 478C179.8 523.6 89.9 569 0 614.4L0 0Z" fill="#FAF1F2"></path></g></svg>