<?xml version="1.0" encoding="utf-8"?>
<!-- Generator: Adobe Illustrator 22.0.0, SVG Export Plug-In . SVG Version: 6.00 Build 0)  -->
<svg version="1.1" id="Layer_1" xmlns="http://www.w3.org/2000/svg" xmlns:xlink="http://www.w3.org/1999/xlink" x="0px" y="0px"
	 viewBox="0 0 4000 4000" style="enable-background:new 0 0 4000 4000;" xml:space="preserve">
<style type="text/css">
	.Graphic_x0020_Style_x0020_230{fill:#DB6767;}
	.Graphic_x0020_Style_x0020_231{fill:#FFFFFF;}
	.Graphic_x0020_Style_x0020_232{fill:#FFB114;}
	.Graphic_x0020_Style_x0020_233{fill:#FFDE70;}
	.Graphic_x0020_Style_x0020_234{fill:#CCC4CC;}
	.Graphic_x0020_Style_x0020_235{fill:#D1334A;}
	
		.Graphic_x0020_Style_x0020_236{fill:#1A1A1A;stroke:#1A1A1A;stroke-width:2;stroke-linecap:round;stroke-linejoin:round;stroke-miterlimit:10;}
	.Graphic_x0020_Style_x0020_237{fill:url(#SVGID_1_);}
	.Graphic_x0020_Style_x0020_238{fill:url(#SVGID_2_);}
	
		.Graphic_x0020_Style_x0020_239{fill:#FFFFFF;stroke:#1A1A1A;stroke-width:2;stroke-linecap:round;stroke-linejoin:round;stroke-miterlimit:10;}
	.Graphic_x0020_Style_x0020_240{fill:#691A25;}
	
		.Graphic_x0020_Style_x0020_241{fill:none;stroke:#1A1A1A;stroke-width:2;stroke-linecap:round;stroke-linejoin:round;stroke-miterlimit:10;}
	
		.Graphic_x0020_Style_x0020_242{fill:none;stroke:#1A1A1A;stroke-width:3;stroke-linecap:round;stroke-linejoin:round;stroke-miterlimit:10;}
	
		.Graphic_x0020_Style_x0020_243{fill:none;stroke:#1A1A1A;stroke-width:3;stroke-linecap:round;stroke-linejoin:round;stroke-miterlimit:10;}
	.Graphic_x0020_Style_x0020_244{fill:#D1334A;}
	.Graphic_x0020_Style_x0020_245{fill:#EB485C;}
	.Graphic_x0020_Style_x0020_246{fill:#FFCF4A;}
	.Graphic_x0020_Style_x0020_247{fill:#1A1A1A;}
	.Graphic_x0020_Style_x0020_248{fill:#FFB114;}
	.Graphic_x0020_Style_x0020_249{fill:#FFCF4A;}
	
		.Graphic_x0020_Style_x0020_250{fill:none;stroke:#203560;stroke-width:3;stroke-linecap:round;stroke-linejoin:round;stroke-miterlimit:10;}
	.st0{fill:url(#SVGID_3_);}
	.st1{fill:url(#SVGID_4_);}
	.st2{fill:#FFB114;}
	.st3{fill:#FFDE70;}
	.st4{fill:#1A1A1A;}
	.st5{fill:#FC9590;}
	.st6{fill:#EF5668;}
	.st7{fill:#D1334A;}
	.st8{fill:#102140;}
	.st9{fill:#1A1A1A;stroke:#1A1A1A;stroke-width:2;stroke-linecap:round;stroke-linejoin:round;stroke-miterlimit:10;}
	.st10{fill:#2A3853;}
	.st11{fill:#8892A8;}
	.st12{fill:#B8BECB;}
	.st13{fill:none;stroke:#1A1A1A;stroke-width:2;stroke-linecap:round;stroke-linejoin:round;stroke-miterlimit:10;}
	.st14{fill:#B080B0;}
	.st15{fill:#846084;}
	.st16{fill:#CCC4CC;}
	.st17{fill:#152A52;}
	.st18{fill:#FFFFFF;}
	.st19{fill:#00593B;}
	.st20{fill:#339E7E;}
	.st21{fill:none;stroke:#FFFFFF;stroke-width:2;stroke-linecap:round;stroke-linejoin:round;stroke-miterlimit:10;}
	.st22{fill:#127755;}
	.st23{fill:url(#SVGID_5_);}
	.st24{fill:url(#SVGID_6_);}
	.st25{fill:#FFFFFF;stroke:#1A1A1A;stroke-width:2;stroke-linecap:round;stroke-linejoin:round;stroke-miterlimit:10;}
	
		.st26{fill:none;stroke:#FFB600;stroke-width:2;stroke-linecap:round;stroke-linejoin:round;stroke-miterlimit:10;stroke-dasharray:12;}
</style>
<linearGradient id="SVGID_1_" gradientUnits="userSpaceOnUse" x1="0" y1="0" x2="1" y2="0">
	<stop  offset="0" style="stop-color:#68B2FC"/>
	<stop  offset="1" style="stop-color:#529BF7"/>
</linearGradient>
<linearGradient id="SVGID_2_" gradientUnits="userSpaceOnUse" x1="0" y1="0" x2="1" y2="0">
	<stop  offset="0" style="stop-color:#4085F0"/>
	<stop  offset="1" style="stop-color:#275DC9"/>
</linearGradient>
<g>
	<g>
		<linearGradient id="SVGID_3_" gradientUnits="userSpaceOnUse" x1="2576.1792" y1="2523.0093" x2="2576.1792" y2="3217.896">
			<stop  offset="0" style="stop-color:#68B2FC"/>
			<stop  offset="1" style="stop-color:#EBF0F7"/>
		</linearGradient>
		<path class="st0" d="M3720.2,3248.8h-2288c21.7-50.1,79.2-149.6,224.2-218.3c185.3-87.8,439.8-90.3,655.2-8.2
			c11.7-207,176.2-383.5,418.5-448.1c176.9-47.2,341.2-21.5,408.9-6.6C3467.9,2640.1,3696.4,2911.6,3720.2,3248.8z"/>
		<linearGradient id="SVGID_4_" gradientUnits="userSpaceOnUse" x1="257.6132" y1="3398.3777" x2="3720.1621" y2="3398.3777">
			<stop  offset="0" style="stop-color:#68B2FC"/>
			<stop  offset="1" style="stop-color:#529BF7"/>
		</linearGradient>
		<path class="st1" d="M257.6,3243.9c1154.2,0,2308.4,0,3462.5,0c-36.7,56.6-106.2,143.6-221.3,196.3
			c-197.4,90.4-445.9,42.2-642.5-117.8c-65.4,24.4-152.6,48.9-257,57.1c-197.4,15.5-355-35.2-442.6-71.4
			c-146.4,85.8-391.8,202.5-713.9,235.6C848.7,3604.8,402.6,3339.2,257.6,3243.9z"/>
		<line class="Graphic_x0020_Style_x0020_250" x1="110.3" y1="3243.9" x2="3728.9" y2="3243.9"/>
		<g>
			<path class="Graphic_x0020_Style_x0020_247" d="M1163.5,2988.1c0,0-28.2-8-40.3,12.4c-12.2,20.4-71,44.3-57.4,67.8
				c8.1,14.1,102.1,92.9,175.7,153.3c48.6,40,128.7,14,128.7,14s35.4-30-64.6-99.8c-51.7-78.3-58.1-107.8-58.1-107.8L1163.5,2988.1z
				"/>
			<path class="Graphic_x0020_Style_x0020_231" d="M1279.2,2965.7l-55.6,95.6c0,0-63.2-36-73-66.5c45.8-76.3,45.8-76.3,45.8-76.3
				l82.9,42.5"/>
			<path class="Graphic_x0020_Style_x0020_249" d="M2170.4,1663.6c-30.2,102-81.5,198.2-140,292.4
				c-59.6,93.3-111.5,176.3-168.5,272.2c-41.5,62.2-90.7,108.9-140,160.7c-77.8,85.5-142.6,173.7-222.9,254
				c-38.9,36.3-88.1,54.4-116.7,98.5c-55.1,84.9-130.5,153.6-165,242c29.4,18.4,59.7,29.8,59.7,29.8s268.2-330.3,533.1-595.2
				c264.9-264.9,416.2-701.5,416.2-701.5L2170.4,1663.6z"/>
			<path class="st2" d="M2062.5,1817.1l63.1,134.5l-37.5,73.5c0,0-53.3-148.7-25.6-201.8"/>
			<path class="st3" d="M1499,2642.9c80.4-80.4,145.2-168.5,222.9-254c49.3-51.8,98.5-98.5,140-160.7
				c57-95.9,108.9-178.9,168.5-272.2c58.4-94.2,109.8-190.3,140-292.4l-191.9-182l-263.3,289.5c0,0-117.7,434.3-140.6,516.1
				c-22.9,81.8-405.5,569.1-412.1,624.7c-3.3,27.8,25.4,53.2,54.8,71.6c34.5-88.4,109.9-157.1,165-242
				C1410.9,2697.3,1460.1,2679.2,1499,2642.9z"/>
			<path class="Graphic_x0020_Style_x0020_248" d="M1687.4,1943.7c0,0,121.7,333,217.9,366.5c29.7-57.9,29.7-57.9,29.7-57.9
				L1687.4,1943.7z"/>
			<path class="Graphic_x0020_Style_x0020_247" d="M2310.6,3113.6c0,0-26.7,12-22.9,35.4s-25.8,79.6-0.4,88.9
				c25.4,9.3,347,2.7,347,2.7s-30-78.5-119.9-105.2s-113.8-45.1-113.8-45.1L2310.6,3113.6z"/>
			<path class="Graphic_x0020_Style_x0020_231" d="M2343.5,3005.6c2.4,0.3,63.8,94.8,63.8,94.8s-63.8,37.6-96.5,28.6
				c-43.3-79.3-43.3-79.3-43.3-79.3S2313.3,3002,2343.5,3005.6z"/>
			<path class="Graphic_x0020_Style_x0020_246" d="M1841.2,1927.4c-38.9-140-2.6-300.7,124.4-394c7.8-7.8,13-18.1,20.7-28.5
				c10.1-12.1,22.2-20.7,35.5-26.5l-77.7-64.4c0,0-323.8,166.8-314,376.1s399,641,399,641s143.5,615.4,254.7,651.4
				c21.3-0.8,37.7-5.3,50.3-11.7c-136.4-192.1-192.8-440.9-200-674.2C2009.7,2256.6,1890.5,2111.5,1841.2,1927.4z"/>
			<path class="st3" d="M2375.4,3017.1c0,0-182.7-864-297.2-1083.1l-39.2-117.7l187.2-168.4l-204.4-169.4
				c-13.3,5.8-25.4,14.3-35.5,26.5c-7.8,10.4-13,20.7-20.7,28.5c-127,93.3-163.3,254-124.4,394c49.3,184.1,168.5,329.2,292.9,469.2
				c7.2,233.3,63.6,482.1,200,674.2C2371.7,3052,2375.4,3017.1,2375.4,3017.1z"/>
			<path class="st4" d="M1901.7,1425.4c0,0-29.4,16.4-4.9,68.7c8.7,18.6,224,300.9,305.8,304.2c81.8-37.6,86.7-44.2,86.7-44.2
				L1901.7,1425.4z"/>
			<path class="Graphic_x0020_Style_x0020_230" d="M3407,1336.4c-56.2-12.5-109.1,8.5-164.1,13.2c6.7,12.9,13.5,22.7,13.5,22.7
				s80.9-11.4,121.8-18c25.3,8.2,91.6,52.3,122.6,31.9c13.7-9,17.2-23.6,16.9-37.1C3489.2,1375.6,3444.4,1343,3407,1336.4z"/>
			<path class="st5" d="M3656.2,1293.8c0-14.7-420.6,1.9-422.7,4.9c-7.9,11.6,0.6,33.9,9.4,50.8c54.9-4.7,107.8-25.7,164.1-13.2
				c37.4,6.6,82.2,39.3,110.8,12.7c-0.4-17.1-7.1-32.4-7.1-32.4S3656.2,1308.5,3656.2,1293.8z"/>
			<path class="Graphic_x0020_Style_x0020_244" d="M2758.9,1416.7c-38.2-3.8-76.4-11.9-110.4-28.3c-34.1,43.9-61.9,87.1-44.5,93.1
				c36.8,12.8,710.5-84,710.5-84s3.9-10.6,7.2-26.2C3134.5,1400.3,2950.7,1431,2758.9,1416.7z"/>
			<path class="Graphic_x0020_Style_x0020_245" d="M2828.9,1320.8c-12.2-6.7-18.7-18.1-21.1-30.9c-45.8,0-75.3-0.2-75.3-0.2
				s-46,49.8-84,98.7c34.1,16.4,72.2,24.5,110.4,28.3c107.2,8,211.9,1.9,316.1-10c-5.1-0.8-10.2-1.8-15.4-2.9
				C2976.7,1388.2,2901.5,1364.9,2828.9,1320.8z"/>
			<path class="Graphic_x0020_Style_x0020_244" d="M2722.7,1285.8c0,0,26.3-2.3,19.9,35.6c-6.5,37.9-13.2,141.7-81.9,161.4
				C2684.6,1382.7,2722.7,1285.8,2722.7,1285.8z"/>
			<path class="st6" d="M3314.5,1279.9c-48.6,9.3-360.6,10.1-506.7,10c2.4,12.9,8.9,24.3,21.1,30.9c72.6,44.1,147.8,67.4,230.7,83
				c5.1,1.2,10.3,2.1,15.4,2.9c82.2-9.4,164.2-22.5,246.7-35.3C3327.2,1346,3331.2,1307.3,3314.5,1279.9z"/>
			<path class="Graphic_x0020_Style_x0020_245" d="M2167.9,1468.6c-20.6-95.5,21-182.9,86.7-248.4c-128,28-250.9,74.6-323.5,128.4
				c0,0-71.9,58.9-26.2,117.7c45.8,58.9,300.9,395.7,470.9,281.3c20.2-13.6,41.9-29.4,64.3-46.8c-47.9-8-94.4-22.2-137.5-40.4
				C2224.9,1626.7,2183.4,1546.3,2167.9,1468.6z"/>
			<path class="st6" d="M2702.9,1247.2c-71.3-69.3-265-67.2-448.3-27c-65.7,65.6-107.3,153-86.7,248.4
				c15.6,77.8,57,158.1,134.8,191.8c43.1,18.1,89.7,32.3,137.5,40.4C2606.3,1571.5,2809.5,1350.9,2702.9,1247.2z"/>
			<path class="st7" d="M2454.3,1355c0,0,82.8,30.8,51.7,116.5c-38.9,107.2-109.9,262-109.9,262l-36.7,23.2L2454.3,1355z"/>
			<path class="st5" d="M2613.7,1976.7c19.3,1.4,37.8-2.4,56.1-7.4c12.2-27.5,19.5-36.9-14.3-55.8c-36.8-20.4-64.5-0.8-84.1,0
				c-19.7,0.8-68.7-3.3-68.7-3.3l-33.9,35c37.8,13.3,80.2-2.1,116.5,18.4C2593,1966.3,2603.4,1974.1,2613.7,1976.7z"/>
			<path class="Graphic_x0020_Style_x0020_230" d="M2613.7,1976.7c-10.4-2.6-20.7-10.4-28.5-13c-36.4-20.5-78.7-5.1-116.5-18.4
				l-14.4,14.8l107.9,15.5c0,0,3.3,11.4,17.2,16.4c13.9,4.9,73.2,18.3,87.1-15.2c1.1-2.7,2.2-5.2,3.3-7.6
				C2651.6,1974.3,2633,1978,2613.7,1976.7z"/>
			<path class="st6" d="M2243,1841.9c51.8,85.5,173.7,72.6,261.8,85.5c11.6,1,23.1,1.9,34.5,3.6c0.5-15.6-3.4-30-14.2-35.1
				c-25.1-12-163.5-98.1-163.5-98.1l112.3-284.5c46.5-101.4,44.9-168.3-41.7-174.4c0,0-18.1,1-43.3,9.3
				C2300.5,1496.1,2235.8,1665.6,2243,1841.9z"/>
			<path class="Graphic_x0020_Style_x0020_244" d="M2504.9,1927.4c-88.1-13-210,0-261.8-85.5c-7.2-176.2,57.5-345.7,146-493.8
				c-43.3,14.3-107.5,50.3-137,140.2c-46.6,142.3-155.8,383.5-65,431c90.8,47.4,314.2,70.3,332.8,60.5c10.6-5.6,19-28.2,19.6-48.8
				C2528,1929.3,2516.4,1928.4,2504.9,1927.4z"/>
			<path class="st5" d="M2614.6,1237.3l67,52.3c0,0,35.7-18.8,88.2-51.1c42.7,34.8,90.1,60.9,152.2-97.7
				c26.2-75.2-73.6-119.4-153.7-54C2688.2,1152.3,2614.6,1237.3,2614.6,1237.3z"/>
			<path class="st8" d="M2693.1,1129.4c0,0,32.7,53.2,49.1,43c16.4-10.3,36-59.3,55.6-43c19.6,16.4-4.9,45.1,11.4,43
				c16.4-2.1,4.9-44.7,37.6-46.3c32.7-1.6,62.1,39.4,112.8,23.8c50.7-15.6,26.2-156.2,26.2-156.2s-50.7,52.3-106.3,27.8
				c-55.6-24.5-83.4,6.7-75.2,33.6C2752,1011.7,2692.7,1104.5,2693.1,1129.4z"/>
			<path class="Graphic_x0020_Style_x0020_231" d="M2589.5,1232.9l34.8-40.9c0,0,69.6,83.7,54.4,109.6
				C2648.4,1299.9,2589.5,1232.9,2589.5,1232.9z"/>
			<path class="Graphic_x0020_Style_x0020_231" d="M2684.7,1289.7c0,0,31.3-39,50.6-30.3c19.3,8.7-19.3,36.4-19.3,36.4l-31.2,5.9
				C2684.7,1301.6,2682,1298.2,2684.7,1289.7z"/>
			<polygon class="st9" points="2669.3,1313 2689.5,1310.6 2691.3,1329.8 2677,1349.4 2662.7,1349.4 			"/>
			<path class="st9" d="M2662.7,1359.4c0,0-127.9,276.1-198.1,286.8c-25,42.8-25,42.8-25,42.8s83,5.4,123-17
				c39.6-22.1,138.1-282.6,120.9-312.7C2662.7,1359.4,2662.7,1359.4,2662.7,1359.4z"/>
		</g>
		<g>
			<polygon class="Graphic_x0020_Style_x0020_232" points="1727.9,870.2 1297.8,868.4 1203.2,920.8 1655.7,920.8 			"/>
			<polygon class="st3" points="1203.2,920.8 1113.9,970.2 1585.1,970.2 1655.7,920.8 			"/>
			<polygon class="st10" points="1113.9,970.2 1241.5,868.4 1297.8,868.4 			"/>
			<path class="st10" d="M828.5,534.6c-71.2,0-71.2,369.5,0,369.5h1209.3V534.6H828.5z"/>
			<path class="st11" d="M1058.3,701.2c-44.1-15.6-98.5-28.5-116.7-70c-13-29.2-11.7-62.5-9.6-96.7h-54.7
				c-71.2,0-71.2,369.5,0,369.5h1209.3V683.3c-99.1,16.1-197.9,33.2-297.3,41.2C1545.7,742.7,1299.4,771.2,1058.3,701.2z"/>
			<path class="st12" d="M932,534.6c-2.1,34.2-3.4,67.4,9.6,96.7c18.1,41.5,72.6,54.4,116.7,70c241.1,70,487.4,41.5,731,23.3
				c99.4-8.1,198.2-25.2,297.3-41.2V534.6H932z"/>
			<line class="st13" x1="955.1" y1="615" x2="1964.4" y2="615"/>
			<line class="st13" x1="955.1" y1="719.3" x2="1964.4" y2="719.3"/>
			<line class="st13" x1="955.1" y1="823.7" x2="1964.4" y2="823.7"/>
			<path class="st10" d="M2391.4,672.2v93.5c-69.8,56.3-199.6,138.4-199.6,138.4h-105.2c-29.6-130.3-32.2-254.1,0-369.5h110.7
				C2197.3,534.6,2323,615.9,2391.4,672.2z"/>
			<path class="st14" d="M2287.1,740.1c23-27.3,62.8-37.1,104.3-34.6v-33.4c-68.5-56.3-194.1-137.6-194.1-137.6h-10.7
				c-24,86-28.7,176.8-17.2,271.4C2214,798.9,2256,780,2287.1,740.1z"/>
			<path class="st15" d="M2287.1,740.1C2256,780,2214,798.9,2169.4,806c3.9,32.2,9.7,64.9,17.2,98h5.2c0,0,129.8-82.1,199.6-138.4
				v-60.1C2349.9,703,2310.1,712.8,2287.1,740.1z"/>
			<path class="st10" d="M2434.7,719.3c0-8.5-17.6-26.1-43.3-47.2v93.5C2417.1,745,2434.7,727.7,2434.7,719.3z"/>
			<path class="st3" d="M1297.8,548.9l430.1-1.8c-31.1-40.8-68.4-78.8-142.8-100h-471.2L1297.8,548.9z"/>
			<polygon class="st10" points="1113.9,447.2 1241.5,548.9 1297.8,548.9 			"/>
			<line class="Graphic_x0020_Style_x0020_243" x1="416.1" y1="575.7" x2="673.1" y2="575.7"/>
			<line class="Graphic_x0020_Style_x0020_243" x1="317.9" y1="688.2" x2="574.9" y2="688.2"/>
			<line class="Graphic_x0020_Style_x0020_243" x1="360.7" y1="756" x2="617.8" y2="756"/>
			<line class="Graphic_x0020_Style_x0020_243" x1="432.1" y1="854.2" x2="689.1" y2="854.2"/>
		</g>
		<g>
			<rect x="213.8" y="2340.8" class="st16" width="174.9" height="903.2"/>
			<polygon class="st17" points="667.1,2646 388.7,2340.8 388.7,3243.9 667.1,3243.9 			"/>
			<rect x="211.4" y="2389.2" class="Graphic_x0020_Style_x0020_240" width="138.6" height="25.6"/>
			<rect x="211.4" y="2479.7" class="Graphic_x0020_Style_x0020_231" width="138.6" height="25.6"/>
			<rect x="211.4" y="2570.1" class="Graphic_x0020_Style_x0020_231" width="138.6" height="25.6"/>
		</g>
		<g>
			<rect x="530.9" y="2340.8" class="st16" width="174.9" height="903.2"/>
			<polygon class="st17" points="984.2,2646 705.8,2340.8 705.8,3243.9 984.2,3243.9 			"/>
			<rect x="528.5" y="2389.2" class="Graphic_x0020_Style_x0020_240" width="138.6" height="25.6"/>
			<rect x="528.5" y="2479.7" class="Graphic_x0020_Style_x0020_231" width="138.6" height="25.6"/>
			<rect x="528.5" y="2570.1" class="Graphic_x0020_Style_x0020_231" width="138.6" height="25.6"/>
		</g>
		<path class="st18" d="M474.3,1205.3c0,0,208.8,41.6,279.9-72.6c96.1,83.9,156.7,80,156.7,80c-6-10.5-147.8,124.6-199.9,275.2
			C602.2,1473.6,430.3,1304.7,474.3,1205.3z"/>
		<g>
			<g>
				<g>
					<g>
						<path class="st19" d="M2672.5,2743.3c134,241.1,524.6,124.6,524.6,124.6s-1.8-2.3-5.5-6.5
							C3032,2765.2,2677.1,2743.5,2672.5,2743.3C2672.5,2743.3,2672.5,2743.3,2672.5,2743.3z"/>
						<path class="st20" d="M2672.5,2743.3c4.6,0.3,359.4,21.9,519.1,118.2C3156.9,2821.8,2959.4,2617.4,2672.5,2743.3z"/>
						<path class="Graphic_x0020_Style_x0020_242" d="M3354.6,3011.8c0,0,5.4-28.9-143-137.1c-6.2-4.6-12.9-9-20-13.2"/>
					</g>
					<path class="st13" d="M3111.4,2824"/>
					<line class="st13" x1="3059.5" y1="2772" x2="3109.9" y2="2825.5"/>
					<line class="st13" x1="2992.4" y1="2741.3" x2="3028.1" y2="2801"/>
					<line class="st13" x1="2903.8" y1="2716.8" x2="2941.3" y2="2778.3"/>
					<line class="st13" x1="2837.7" y1="2721.8" x2="2865.5" y2="2765"/>
					<path class="st21" d="M2802.8,2813.7c2.1-2.2,62.7-48.6,62.7-48.6"/>
					<line class="st21" x1="2940.6" y1="2777.2" x2="2851.8" y2="2856.1"/>
					<line class="st21" x1="3024.5" y1="2797.2" x2="2937.8" y2="2875.8"/>
					<line class="st21" x1="3106.8" y1="2822.2" x2="3044.7" y2="2872.9"/>
				</g>
				<g>
					<g>
						<path class="st20" d="M2670.8,2263.4c0,0,413.9,231.1,560.7,450.5C3208.1,2641.9,3065.3,2258.8,2670.8,2263.4z"/>
						<path class="st22" d="M2670.8,2263.4c51.5,395.6,564.2,462.1,564.2,462.1s-1.1-4.1-3.5-11.6
							C3084.7,2494.5,2670.8,2263.4,2670.8,2263.4z"/>
						<path class="Graphic_x0020_Style_x0020_242" d="M3357.4,3005.4c0,0,19.2-35.3-108.2-262.7c-5.4-9.5-11.3-19.2-17.7-28.8"/>
					</g>
					<line class="st13" x1="2977.6" y1="2465.8" x2="2962.4" y2="2373.8"/>
					<line class="st13" x1="2912" y1="2417.6" x2="2892.9" y2="2330"/>
					<path class="st13" d="M3120.8,2524.7c0,0,32.6,56.8,48.8,111.6"/>
					<line class="Graphic_x0020_Style_x0020_241" x1="3041.6" y1="2462.9" x2="3072.8" y2="2538.3"/>
					<line class="st21" x1="2738.8" y1="2395.6" x2="2821.4" y2="2355.9"/>
					<line class="st21" x1="2788.6" y1="2482.5" x2="2909.5" y2="2415.8"/>
					<line class="st21" x1="2975.6" y1="2464.3" x2="2854.4" y2="2545.5"/>
					<line class="st21" x1="3072.6" y1="2540.1" x2="2950.5" y2="2604.8"/>
					<line class="st21" x1="3167.2" y1="2633.7" x2="3082" y2="2670.4"/>
				</g>
				<g>
					<g>
						<path class="st22" d="M3662.2,2392.1c0,0-209.2,254.7-248.5,434C3410.6,2773.6,3405.7,2489.3,3662.2,2392.1z"/>
						<path class="st20" d="M3662.2,2392.1c67.1,269.1-247.8,442.4-247.8,442.4s-0.3-3-0.6-8.4
							C3453,2646.8,3662.2,2392.1,3662.2,2392.1z"/>
						<path class="Graphic_x0020_Style_x0020_242" d="M3406.3,3046.8c0,0-21.4-18,3.3-197.5c1-7.5,2.4-15.3,4.2-23.1"/>
					</g>
					<line class="st13" x1="3515" y1="2601" x2="3501.5" y2="2537.6"/>
					<line class="st13" x1="3545.2" y1="2553.2" x2="3535.3" y2="2491.6"/>
					<path class="st13" d="M3437.3,2675.5c0,0-6.7,45.1-3.2,84.6"/>
					<line class="Graphic_x0020_Style_x0020_241" x1="3472.9" y1="2615.4" x2="3471.8" y2="2672.1"/>
					<line class="st13" x1="3651.8" y1="2494.9" x2="3588.2" y2="2490.2"/>
					<line class="st13" x1="3641.6" y1="2563.8" x2="3546.4" y2="2551.3"/>
					<line class="st13" x1="3515.9" y1="2599.5" x2="3615" y2="2621.3"/>
					<line class="st13" x1="3472.4" y1="2673.2" x2="3567.9" y2="2684"/>
					<line class="st13" x1="3434.9" y1="2757.9" x2="3499.4" y2="2759.9"/>
				</g>
			</g>
			<polygon class="Graphic_x0020_Style_x0020_240" points="3576.4,3016.3 3392,3007.6 3207.6,3016.3 3169.6,3241.2 3207.6,3241.2 
				3337.1,3111.6 3392,3111.6 3446.9,3111.6 3576.4,3241.2 3614.4,3241.2 			"/>
			<rect x="3188.5" y="2949.5" class="st14" width="406.9" height="85"/>
		</g>
		
			<rect x="3788.1" y="2912.9" transform="matrix(-0.945 -0.327 0.327 -0.945 6501.8145 6965.8408)" class="Graphic_x0020_Style_x0020_236" width="96.5" height="47.1"/>
		
			<rect x="3463.7" y="2314.5" transform="matrix(0.6245 -0.781 0.781 0.6245 -511.9928 3611.1436)" class="Graphic_x0020_Style_x0020_239" width="71.2" height="47.1"/>
		<linearGradient id="SVGID_5_" gradientUnits="userSpaceOnUse" x1="2465.0049" y1="2413.8879" x2="2528.3662" y2="2413.8879">
			<stop  offset="0" style="stop-color:#4085F0"/>
			<stop  offset="1" style="stop-color:#275DC9"/>
		</linearGradient>
		<polygon class="st23" points="2486.1,2454 2465,2387.2 2507.2,2373.8 2528.4,2440.6 		"/>
		<linearGradient id="SVGID_6_" gradientUnits="userSpaceOnUse" x1="911.0095" y1="2178.6829" x2="1106.6866" y2="2178.6829">
			<stop  offset="0" style="stop-color:#68B2FC"/>
			<stop  offset="1" style="stop-color:#529BF7"/>
		</linearGradient>
		<polygon class="st24" points="1106.7,2195.8 938.6,2248.9 911,2161.6 1079.1,2108.4 		"/>
		
			<rect x="726.9" y="1910.3" transform="matrix(0.3017 0.9534 -0.9534 0.3017 2407.3945 602.1517)" class="Graphic_x0020_Style_x0020_236" width="131.4" height="68.3"/>
		<g>
			
				<rect x="121.6" y="1932.4" transform="matrix(0.991 -0.1336 0.1336 0.991 -257.3278 52.433)" class="Graphic_x0020_Style_x0020_235" width="281.1" height="24"/>
			
				<rect x="114.7" y="1880.6" transform="matrix(0.991 -0.1336 0.1336 0.991 -252.6437 35.1404)" class="Graphic_x0020_Style_x0020_234" width="41.9" height="40.4"/>
			
				<rect x="189.8" y="1811.4" transform="matrix(0.991 -0.1336 0.1336 0.991 -246.661 44.8146)" class="Graphic_x0020_Style_x0020_234" width="41.9" height="99.1"/>
			
				<rect x="264.7" y="1740.4" transform="matrix(0.991 -0.1336 0.1336 0.991 -240.5526 54.4633)" class="Graphic_x0020_Style_x0020_234" width="41.9" height="159.8"/>
			
				<rect x="341.2" y="1691.4" transform="matrix(0.991 -0.1336 0.1336 0.991 -235.9007 64.4085)" class="Graphic_x0020_Style_x0020_234" width="41.9" height="198.3"/>
		</g>
		<path class="st25" d="M528.6,1250.5c0,0,77.3,160.6,174.9,171.4"/>
		<path class="st25" d="M575,1260c0,0,52.4,102.3,154.7,102.3"/>
		<path class="st25" d="M616.1,1250.5c0,0,82.7,79.7,164.8,60.7"/>
		<path class="st25" d="M677.4,1218.3c0,0,74.2,55.9,146.6,41.6"/>
		<g>
			<circle class="st2" cx="3546.4" cy="1944.4" r="136.6"/>
			<circle class="st3" cx="3546.4" cy="1944.4" r="117.3"/>
			<path class="Graphic_x0020_Style_x0020_231" d="M3572.3,1978.2c0-5.7-2-10.4-5.9-14.3c-4-3.9-10.7-7.4-20.1-10.5
				c-13.1-4-22.6-9.2-28.6-15.6c-6-6.4-9-14.6-9-24.5c0-10.1,2.9-18.3,8.8-24.8c5.9-6.5,13.9-10.3,24.2-11.5v-20.2h13.7v20.3
				c10.3,1.4,18.4,5.7,24.1,13c5.7,7.3,8.6,17.2,8.6,29.8h-17c0-8.7-2.1-15.6-6.2-20.7c-4.1-5.1-9.7-7.7-16.7-7.7
				c-7.3,0-12.9,1.9-16.8,5.7c-3.9,3.8-5.8,9.1-5.8,15.8c0,6.3,2,11.3,6.1,15c4.1,3.7,10.8,7.1,20.2,10.2c9.4,3,16.7,6.4,21.9,10.1
				c5.3,3.7,9.1,7.9,11.6,12.8c2.5,4.9,3.7,10.5,3.7,17.1c0,10.4-3.1,18.7-9.4,25.1c-6.2,6.3-15,10.1-26.2,11.2v17.6h-13.6v-17.6
				c-11.4-1-20.4-5.1-26.9-12.2c-6.5-7.1-9.7-16.7-9.7-28.9h17.1c0,8.5,2.2,15.1,6.7,19.7c4.5,4.6,10.9,6.9,19.1,6.9
				c8.1,0,14.4-1.9,19-5.8C3570,1990.2,3572.3,1984.9,3572.3,1978.2z"/>
		</g>
		<g>
			
				<ellipse transform="matrix(2.270978e-02 -0.9997 0.9997 2.270978e-02 -263.8146 2705.9553)" class="Graphic_x0020_Style_x0020_233" cx="1252.2" cy="1487.9" rx="144.6" ry="144.6"/>
			
				<ellipse transform="matrix(2.937381e-02 -0.9996 0.9996 2.937381e-02 -271.9008 2695.8223)" class="Graphic_x0020_Style_x0020_232" cx="1252.2" cy="1487.9" rx="124.1" ry="124.1"/>
			<path class="Graphic_x0020_Style_x0020_231" d="M1279.5,1523.7c0-6-2.1-11-6.3-15.1c-4.2-4.1-11.3-7.8-21.2-11.1
				c-13.9-4.2-24-9.7-30.3-16.5c-6.3-6.8-9.5-15.4-9.5-25.9c0-10.7,3.1-19.4,9.3-26.3c6.2-6.8,14.8-10.9,25.6-12.2v-21.4h14.5v21.5
				c10.9,1.5,19.4,6.1,25.5,13.8c6.1,7.7,9.1,18.2,9.1,31.5h-18c0-9.2-2.2-16.5-6.5-21.9c-4.4-5.4-10.3-8.1-17.7-8.1
				c-7.7,0-13.7,2-17.8,6c-4.1,4-6.2,9.6-6.2,16.8c0,6.7,2.2,11.9,6.5,15.9c4.3,3.9,11.5,7.5,21.4,10.8c9.9,3.2,17.7,6.8,23.2,10.6
				c5.6,3.9,9.7,8.4,12.3,13.5c2.6,5.1,4,11.2,4,18.1c0,11-3.3,19.9-9.9,26.6c-6.6,6.7-15.9,10.7-27.8,11.9v18.6h-14.5V1562
				c-12.1-1.1-21.6-5.4-28.5-12.9c-6.9-7.5-10.3-17.7-10.3-30.6h18.1c0,9,2.4,16,7.1,20.9c4.8,4.9,11.5,7.3,20.2,7.3
				c8.5,0,15.2-2.1,20.1-6.2C1277.1,1536.4,1279.5,1530.8,1279.5,1523.7z"/>
		</g>
		<path class="st26" d="M750.6,919.3c-469.9,17-900.2,538.2-222.7,713.2c890.1,229.9,848.4,889.9,535.9,1003.8"/>
	</g>
	<path class="Graphic_x0020_Style_x0020_230" d="M2745.4,1196.1l24.4,42.4l-25.3,15.3C2744.5,1253.9,2726,1211.9,2745.4,1196.1z"/>
</g>
</svg>
